<?xml version="1.0" encoding="utf-8" standalone="no"?>
<!DOCTYPE svg PUBLIC "-//W3C//DTD SVG 1.1//EN"
  "http://www.w3.org/Graphics/SVG/1.1/DTD/svg11.dtd">
<!-- Created with matplotlib (https://matplotlib.org/) -->
<svg height="288pt" version="1.1" viewBox="0 0 432 288" width="432pt" xmlns="http://www.w3.org/2000/svg" xmlns:xlink="http://www.w3.org/1999/xlink">
 <defs>
  <style type="text/css">
*{stroke-linecap:butt;stroke-linejoin:round;}
  </style>
 </defs>
 <g id="figure_1">
  <g id="patch_1">
   <path d="M 0 288 
L 432 288 
L 432 0 
L 0 0 
z
" style="fill:#ffffff;"/>
  </g>
  <g id="axes_1">
   <g id="patch_2">
    <path d="M 54 252 
L 388.8 252 
L 388.8 34.56 
L 54 34.56 
z
" style="fill:#ffffff;"/>
   </g>
   <g id="matplotlib.axis_1">
    <g id="xtick_1">
     <g id="line2d_1">
      <defs>
       <path d="M 0 0 
L 0 6 
" id="mfda6ab0fa4" style="stroke:#262626;stroke-width:0.8;"/>
      </defs>
      <g>
       <use style="fill:#262626;stroke:#262626;stroke-width:0.8;" x="69.218182" xlink:href="#mfda6ab0fa4" y="252"/>
      </g>
     </g>
     <g id="text_1">
      <!-- 0 -->
      <defs>
       <path d="M 51.703125 34.421875 
Q 51.703125 24.515625 49.828125 17.75 
Q 47.953125 10.984375 44.703125 6.8125 
Q 41.453125 2.640625 37.0625 0.828125 
Q 32.671875 -0.984375 27.6875 -0.984375 
Q 22.65625 -0.984375 18.3125 0.828125 
Q 13.96875 2.640625 10.765625 6.78125 
Q 7.5625 10.9375 5.734375 17.703125 
Q 3.90625 24.46875 3.90625 34.421875 
Q 3.90625 44.828125 5.734375 51.640625 
Q 7.5625 58.453125 10.78125 62.5 
Q 14.015625 66.546875 18.40625 68.1875 
Q 22.796875 69.828125 27.984375 69.828125 
Q 32.90625 69.828125 37.21875 68.1875 
Q 41.546875 66.546875 44.765625 62.5 
Q 48 58.453125 49.84375 51.640625 
Q 51.703125 44.828125 51.703125 34.421875 
z
M 42.78125 34.421875 
Q 42.78125 42.625 41.796875 48.0625 
Q 40.828125 53.515625 38.921875 56.765625 
Q 37.015625 60.015625 34.25 61.359375 
Q 31.5 62.703125 27.984375 62.703125 
Q 24.265625 62.703125 21.4375 61.328125 
Q 18.609375 59.96875 16.671875 56.71875 
Q 14.75 53.46875 13.765625 48.015625 
Q 12.796875 42.578125 12.796875 34.421875 
Q 12.796875 26.515625 13.796875 21.09375 
Q 14.796875 15.671875 16.71875 12.375 
Q 18.65625 9.078125 21.4375 7.640625 
Q 24.21875 6.203125 27.78125 6.203125 
Q 31.25 6.203125 34.03125 7.640625 
Q 36.8125 9.078125 38.734375 12.375 
Q 40.671875 15.671875 41.71875 21.09375 
Q 42.78125 26.515625 42.78125 34.421875 
z
" id="LiberationSans-48"/>
      </defs>
      <g style="fill:#262626;" transform="translate(66.437713 268.746875)scale(0.1 -0.1)">
       <use xlink:href="#LiberationSans-48"/>
      </g>
     </g>
    </g>
    <g id="xtick_2">
     <g id="line2d_2">
      <g>
       <use style="fill:#262626;stroke:#262626;stroke-width:0.8;" x="127.975641" xlink:href="#mfda6ab0fa4" y="252"/>
      </g>
     </g>
     <g id="text_2">
      <!-- 50 -->
      <defs>
       <path d="M 51.421875 22.40625 
Q 51.421875 17.234375 49.859375 12.9375 
Q 48.296875 8.640625 45.21875 5.53125 
Q 42.140625 2.4375 37.578125 0.71875 
Q 33.015625 -0.984375 27 -0.984375 
Q 21.578125 -0.984375 17.546875 0.28125 
Q 13.53125 1.5625 10.734375 3.78125 
Q 7.953125 6 6.3125 8.984375 
Q 4.6875 11.96875 4 15.375 
L 12.890625 16.40625 
Q 13.421875 14.453125 14.390625 12.625 
Q 15.375 10.796875 17.0625 9.34375 
Q 18.75 7.90625 21.21875 7.046875 
Q 23.6875 6.203125 27.203125 6.203125 
Q 30.609375 6.203125 33.390625 7.25 
Q 36.1875 8.296875 38.15625 10.34375 
Q 40.140625 12.40625 41.203125 15.375 
Q 42.28125 18.359375 42.28125 22.21875 
Q 42.28125 25.390625 41.25 28.046875 
Q 40.234375 30.71875 38.328125 32.640625 
Q 36.421875 34.578125 33.65625 35.640625 
Q 30.90625 36.71875 27.390625 36.71875 
Q 25.203125 36.71875 23.34375 36.328125 
Q 21.484375 35.9375 19.890625 35.25 
Q 18.3125 34.578125 17.015625 33.671875 
Q 15.71875 32.765625 14.59375 31.78125 
L 6 31.78125 
L 8.296875 68.796875 
L 47.40625 68.796875 
L 47.40625 61.328125 
L 16.3125 61.328125 
L 14.984375 39.5 
Q 17.328125 41.3125 20.84375 42.59375 
Q 24.359375 43.890625 29.203125 43.890625 
Q 34.328125 43.890625 38.421875 42.328125 
Q 42.53125 40.765625 45.40625 37.90625 
Q 48.296875 35.0625 49.859375 31.109375 
Q 51.421875 27.15625 51.421875 22.40625 
z
" id="LiberationSans-53"/>
      </defs>
      <g style="fill:#262626;" transform="translate(122.414703 268.746875)scale(0.1 -0.1)">
       <use xlink:href="#LiberationSans-53"/>
       <use x="55.615234" xlink:href="#LiberationSans-48"/>
      </g>
     </g>
    </g>
    <g id="xtick_3">
     <g id="line2d_3">
      <g>
       <use style="fill:#262626;stroke:#262626;stroke-width:0.8;" x="186.733099" xlink:href="#mfda6ab0fa4" y="252"/>
      </g>
     </g>
     <g id="text_3">
      <!-- 100 -->
      <defs>
       <path d="M 7.625 0 
L 7.625 7.46875 
L 25.140625 7.46875 
L 25.140625 60.40625 
L 9.625 49.3125 
L 9.625 57.625 
L 25.875 68.796875 
L 33.984375 68.796875 
L 33.984375 7.46875 
L 50.734375 7.46875 
L 50.734375 0 
z
" id="LiberationSans-49"/>
      </defs>
      <g style="fill:#262626;" transform="translate(178.391693 268.746875)scale(0.1 -0.1)">
       <use xlink:href="#LiberationSans-49"/>
       <use x="55.615234" xlink:href="#LiberationSans-48"/>
       <use x="111.230469" xlink:href="#LiberationSans-48"/>
      </g>
     </g>
    </g>
    <g id="xtick_4">
     <g id="line2d_4">
      <g>
       <use style="fill:#262626;stroke:#262626;stroke-width:0.8;" x="245.490558" xlink:href="#mfda6ab0fa4" y="252"/>
      </g>
     </g>
     <g id="text_4">
      <!-- 150 -->
      <g style="fill:#262626;" transform="translate(237.149152 268.746875)scale(0.1 -0.1)">
       <use xlink:href="#LiberationSans-49"/>
       <use x="55.615234" xlink:href="#LiberationSans-53"/>
       <use x="111.230469" xlink:href="#LiberationSans-48"/>
      </g>
     </g>
    </g>
    <g id="xtick_5">
     <g id="line2d_5">
      <g>
       <use style="fill:#262626;stroke:#262626;stroke-width:0.8;" x="304.248017" xlink:href="#mfda6ab0fa4" y="252"/>
      </g>
     </g>
     <g id="text_5">
      <!-- 200 -->
      <defs>
       <path d="M 5.03125 0 
L 5.03125 6.203125 
Q 7.515625 11.921875 11.109375 16.28125 
Q 14.703125 20.65625 18.65625 24.1875 
Q 22.609375 27.734375 26.484375 30.765625 
Q 30.375 33.796875 33.5 36.8125 
Q 36.625 39.84375 38.546875 43.15625 
Q 40.484375 46.484375 40.484375 50.6875 
Q 40.484375 53.609375 39.59375 55.828125 
Q 38.71875 58.0625 37.0625 59.5625 
Q 35.40625 61.078125 33.078125 61.828125 
Q 30.765625 62.59375 27.9375 62.59375 
Q 25.296875 62.59375 22.96875 61.859375 
Q 20.65625 61.140625 18.84375 59.671875 
Q 17.046875 58.203125 15.890625 56.03125 
Q 14.75 53.859375 14.40625 50.984375 
L 5.421875 51.8125 
Q 5.859375 55.515625 7.46875 58.78125 
Q 9.078125 62.0625 11.90625 64.53125 
Q 14.75 67 18.71875 68.40625 
Q 22.703125 69.828125 27.9375 69.828125 
Q 33.0625 69.828125 37.0625 68.609375 
Q 41.0625 67.390625 43.8125 64.984375 
Q 46.578125 62.59375 48.046875 59.078125 
Q 49.515625 55.5625 49.515625 50.984375 
Q 49.515625 47.515625 48.265625 44.390625 
Q 47.015625 41.265625 44.9375 38.421875 
Q 42.875 35.59375 40.140625 32.953125 
Q 37.40625 30.328125 34.421875 27.8125 
Q 31.453125 25.296875 28.421875 22.828125 
Q 25.390625 20.359375 22.71875 17.859375 
Q 20.0625 15.375 17.96875 12.8125 
Q 15.875 10.25 14.703125 7.46875 
L 50.59375 7.46875 
L 50.59375 0 
z
" id="LiberationSans-50"/>
      </defs>
      <g style="fill:#262626;" transform="translate(295.906611 268.746875)scale(0.1 -0.1)">
       <use xlink:href="#LiberationSans-50"/>
       <use x="55.615234" xlink:href="#LiberationSans-48"/>
       <use x="111.230469" xlink:href="#LiberationSans-48"/>
      </g>
     </g>
    </g>
    <g id="xtick_6">
     <g id="line2d_6">
      <g>
       <use style="fill:#262626;stroke:#262626;stroke-width:0.8;" x="363.005476" xlink:href="#mfda6ab0fa4" y="252"/>
      </g>
     </g>
     <g id="text_6">
      <!-- 250 -->
      <g style="fill:#262626;" transform="translate(354.664069 268.746875)scale(0.1 -0.1)">
       <use xlink:href="#LiberationSans-50"/>
       <use x="55.615234" xlink:href="#LiberationSans-53"/>
       <use x="111.230469" xlink:href="#LiberationSans-48"/>
      </g>
     </g>
    </g>
    <g id="text_7">
     <!-- epoch -->
     <defs>
      <path d="M 13.484375 24.5625 
Q 13.484375 20.40625 14.328125 16.90625 
Q 15.1875 13.421875 16.96875 10.90625 
Q 18.75 8.40625 21.53125 7 
Q 24.3125 5.609375 28.21875 5.609375 
Q 33.9375 5.609375 37.375 7.90625 
Q 40.828125 10.203125 42.046875 13.71875 
L 49.75 11.53125 
Q 48.921875 9.328125 47.4375 7.109375 
Q 45.953125 4.890625 43.453125 3.09375 
Q 40.96875 1.3125 37.234375 0.15625 
Q 33.5 -0.984375 28.21875 -0.984375 
Q 16.5 -0.984375 10.375 6 
Q 4.25 12.984375 4.25 26.765625 
Q 4.25 34.1875 6.09375 39.328125 
Q 7.953125 44.484375 11.171875 47.703125 
Q 14.40625 50.921875 18.703125 52.359375 
Q 23 53.8125 27.875 53.8125 
Q 34.515625 53.8125 38.984375 51.65625 
Q 43.453125 49.515625 46.15625 45.71875 
Q 48.875 41.9375 50.015625 36.8125 
Q 51.171875 31.6875 51.171875 25.734375 
L 51.171875 24.5625 
z
M 42.09375 31.296875 
Q 41.359375 39.65625 37.84375 43.484375 
Q 34.328125 47.3125 27.734375 47.3125 
Q 25.53125 47.3125 23.109375 46.609375 
Q 20.703125 45.90625 18.65625 44.09375 
Q 16.609375 42.28125 15.1875 39.171875 
Q 13.765625 36.078125 13.578125 31.296875 
z
" id="LiberationSans-101"/>
      <path d="M 51.421875 26.65625 
Q 51.421875 20.65625 50.4375 15.578125 
Q 49.46875 10.5 47.1875 6.828125 
Q 44.921875 3.171875 41.1875 1.09375 
Q 37.453125 -0.984375 31.984375 -0.984375 
Q 26.3125 -0.984375 22.0625 1.171875 
Q 17.828125 3.328125 15.578125 8.203125 
L 15.328125 8.203125 
Q 15.375 8.109375 15.40625 7.328125 
Q 15.4375 6.546875 15.453125 5.375 
Q 15.484375 4.203125 15.5 2.75 
Q 15.53125 1.3125 15.53125 -0.09375 
L 15.53125 -20.75 
L 6.734375 -20.75 
L 6.734375 42.046875 
Q 6.734375 43.953125 6.703125 45.703125 
Q 6.6875 47.46875 6.640625 48.90625 
Q 6.59375 50.34375 6.546875 51.359375 
Q 6.5 52.390625 6.453125 52.828125 
L 14.9375 52.828125 
Q 14.984375 52.6875 15.0625 51.796875 
Q 15.140625 50.921875 15.203125 49.671875 
Q 15.28125 48.4375 15.359375 47.015625 
Q 15.4375 45.609375 15.4375 44.34375 
L 15.625 44.34375 
Q 16.84375 46.875 18.40625 48.65625 
Q 19.96875 50.4375 21.96875 51.578125 
Q 23.96875 52.734375 26.4375 53.25 
Q 28.90625 53.765625 31.984375 53.765625 
Q 37.453125 53.765625 41.1875 51.8125 
Q 44.921875 49.859375 47.1875 46.3125 
Q 49.46875 42.78125 50.4375 37.765625 
Q 51.421875 32.765625 51.421875 26.65625 
z
M 42.1875 26.46875 
Q 42.1875 31.34375 41.59375 35.15625 
Q 41.015625 38.96875 39.578125 41.59375 
Q 38.140625 44.234375 35.734375 45.59375 
Q 33.34375 46.96875 29.734375 46.96875 
Q 26.8125 46.96875 24.21875 46.140625 
Q 21.625 45.3125 19.703125 42.96875 
Q 17.78125 40.625 16.65625 36.5 
Q 15.53125 32.375 15.53125 25.78125 
Q 15.53125 20.171875 16.453125 16.28125 
Q 17.390625 12.40625 19.171875 10.015625 
Q 20.953125 7.625 23.578125 6.5625 
Q 26.21875 5.515625 29.640625 5.515625 
Q 33.296875 5.515625 35.71875 6.921875 
Q 38.140625 8.34375 39.578125 11.03125 
Q 41.015625 13.71875 41.59375 17.59375 
Q 42.1875 21.484375 42.1875 26.46875 
z
" id="LiberationSans-112"/>
      <path d="M 51.421875 26.46875 
Q 51.421875 12.59375 45.3125 5.796875 
Q 39.203125 -0.984375 27.59375 -0.984375 
Q 22.078125 -0.984375 17.71875 0.671875 
Q 13.375 2.34375 10.375 5.765625 
Q 7.375 9.1875 5.78125 14.328125 
Q 4.203125 19.484375 4.203125 26.46875 
Q 4.203125 53.8125 27.875 53.8125 
Q 34.03125 53.8125 38.5 52.09375 
Q 42.96875 50.390625 45.828125 46.96875 
Q 48.6875 43.5625 50.046875 38.421875 
Q 51.421875 33.296875 51.421875 26.46875 
z
M 42.1875 26.46875 
Q 42.1875 32.625 41.234375 36.625 
Q 40.28125 40.625 38.453125 43.015625 
Q 36.625 45.40625 33.984375 46.359375 
Q 31.34375 47.3125 28.03125 47.3125 
Q 24.65625 47.3125 21.9375 46.3125 
Q 19.234375 45.3125 17.328125 42.890625 
Q 15.4375 40.484375 14.421875 36.46875 
Q 13.421875 32.46875 13.421875 26.46875 
Q 13.421875 20.3125 14.5 16.28125 
Q 15.578125 12.25 17.453125 9.859375 
Q 19.34375 7.46875 21.90625 6.484375 
Q 24.46875 5.515625 27.484375 5.515625 
Q 30.859375 5.515625 33.59375 6.46875 
Q 36.328125 7.421875 38.234375 9.8125 
Q 40.140625 12.203125 41.15625 16.25 
Q 42.1875 20.3125 42.1875 26.46875 
z
" id="LiberationSans-111"/>
      <path d="M 13.421875 26.65625 
Q 13.421875 22.125 14.078125 18.3125 
Q 14.75 14.5 16.3125 11.734375 
Q 17.875 8.984375 20.4375 7.46875 
Q 23 5.953125 26.765625 5.953125 
Q 31.453125 5.953125 34.59375 8.484375 
Q 37.75 11.03125 38.484375 16.3125 
L 47.359375 15.71875 
Q 46.921875 12.453125 45.453125 9.421875 
Q 44 6.390625 41.484375 4.09375 
Q 38.96875 1.8125 35.34375 0.40625 
Q 31.734375 -0.984375 27 -0.984375 
Q 20.796875 -0.984375 16.453125 1.109375 
Q 12.109375 3.21875 9.390625 6.90625 
Q 6.6875 10.59375 5.46875 15.59375 
Q 4.25 20.609375 4.25 26.46875 
Q 4.25 31.78125 5.125 35.859375 
Q 6 39.9375 7.59375 42.984375 
Q 9.1875 46.046875 11.328125 48.125 
Q 13.484375 50.203125 15.984375 51.4375 
Q 18.5 52.6875 21.28125 53.25 
Q 24.078125 53.8125 26.90625 53.8125 
Q 31.34375 53.8125 34.8125 52.59375 
Q 38.28125 51.375 40.796875 49.25 
Q 43.3125 47.125 44.875 44.234375 
Q 46.4375 41.359375 47.078125 38.03125 
L 38.03125 37.359375 
Q 37.359375 41.75 34.5625 44.328125 
Q 31.78125 46.921875 26.65625 46.921875 
Q 22.90625 46.921875 20.390625 45.671875 
Q 17.875 44.4375 16.3125 41.921875 
Q 14.75 39.40625 14.078125 35.59375 
Q 13.421875 31.78125 13.421875 26.65625 
z
" id="LiberationSans-99"/>
      <path d="M 15.484375 43.796875 
Q 16.9375 46.484375 18.640625 48.359375 
Q 20.359375 50.25 22.40625 51.46875 
Q 24.46875 52.6875 26.90625 53.25 
Q 29.34375 53.8125 32.375 53.8125 
Q 37.453125 53.8125 40.703125 52.4375 
Q 43.953125 51.078125 45.828125 48.609375 
Q 47.703125 46.140625 48.40625 42.71875 
Q 49.125 39.3125 49.125 35.203125 
L 49.125 0 
L 40.28125 0 
L 40.28125 33.5 
Q 40.28125 36.859375 39.859375 39.390625 
Q 39.453125 41.9375 38.28125 43.625 
Q 37.109375 45.3125 34.953125 46.15625 
Q 32.8125 47.015625 29.390625 47.015625 
Q 26.265625 47.015625 23.75 45.890625 
Q 21.234375 44.78125 19.453125 42.71875 
Q 17.671875 40.671875 16.6875 37.734375 
Q 15.71875 34.8125 15.71875 31.15625 
L 15.71875 0 
L 6.9375 0 
L 6.9375 72.46875 
L 15.71875 72.46875 
L 15.71875 53.609375 
Q 15.71875 52 15.671875 50.390625 
Q 15.625 48.78125 15.546875 47.40625 
Q 15.484375 46.046875 15.421875 45.09375 
Q 15.375 44.140625 15.328125 43.796875 
z
" id="LiberationSans-104"/>
     </defs>
     <g style="fill:#262626;" transform="translate(207.778125 282.06875)scale(0.1 -0.1)">
      <use xlink:href="#LiberationSans-101"/>
      <use x="55.615234" xlink:href="#LiberationSans-112"/>
      <use x="111.230469" xlink:href="#LiberationSans-111"/>
      <use x="166.845703" xlink:href="#LiberationSans-99"/>
      <use x="216.845703" xlink:href="#LiberationSans-104"/>
     </g>
    </g>
   </g>
   <g id="matplotlib.axis_2">
    <g id="ytick_1">
     <g id="line2d_7">
      <defs>
       <path d="M 0 0 
L -6 0 
" id="mceda025fa6" style="stroke:#262626;stroke-width:0.8;"/>
      </defs>
      <g>
       <use style="fill:#262626;stroke:#262626;stroke-width:0.8;" x="54" xlink:href="#mceda025fa6" y="225.296534"/>
      </g>
     </g>
     <g id="text_8">
      <!-- 0.4 -->
      <defs>
       <path d="M 9.125 0 
L 9.125 10.6875 
L 18.65625 10.6875 
L 18.65625 0 
z
" id="LiberationSans-46"/>
       <path d="M 43.015625 15.578125 
L 43.015625 0 
L 34.71875 0 
L 34.71875 15.578125 
L 2.296875 15.578125 
L 2.296875 22.40625 
L 33.796875 68.796875 
L 43.015625 68.796875 
L 43.015625 22.515625 
L 52.6875 22.515625 
L 52.6875 15.578125 
z
M 34.71875 58.890625 
Q 34.625 58.640625 34.234375 57.9375 
Q 33.84375 57.234375 33.34375 56.34375 
Q 32.859375 55.46875 32.34375 54.5625 
Q 31.84375 53.65625 31.453125 53.078125 
L 13.8125 27.09375 
Q 13.578125 26.703125 13.109375 26.0625 
Q 12.640625 25.4375 12.15625 24.78125 
Q 11.671875 24.125 11.171875 23.484375 
Q 10.6875 22.859375 10.40625 22.515625 
L 34.71875 22.515625 
z
" id="LiberationSans-52"/>
      </defs>
      <g style="fill:#262626;" transform="translate(30.6 228.919972)scale(0.1 -0.1)">
       <use xlink:href="#LiberationSans-48"/>
       <use x="55.615234" xlink:href="#LiberationSans-46"/>
       <use x="83.398438" xlink:href="#LiberationSans-52"/>
      </g>
     </g>
    </g>
    <g id="ytick_2">
     <g id="line2d_8">
      <g>
       <use style="fill:#262626;stroke:#262626;stroke-width:0.8;" x="54" xlink:href="#mceda025fa6" y="194.772839"/>
      </g>
     </g>
     <g id="text_9">
      <!-- 0.5 -->
      <g style="fill:#262626;" transform="translate(30.6 198.396276)scale(0.1 -0.1)">
       <use xlink:href="#LiberationSans-48"/>
       <use x="55.615234" xlink:href="#LiberationSans-46"/>
       <use x="83.398438" xlink:href="#LiberationSans-53"/>
      </g>
     </g>
    </g>
    <g id="ytick_3">
     <g id="line2d_9">
      <g>
       <use style="fill:#262626;stroke:#262626;stroke-width:0.8;" x="54" xlink:href="#mceda025fa6" y="164.249143"/>
      </g>
     </g>
     <g id="text_10">
      <!-- 0.6 -->
      <defs>
       <path d="M 51.21875 22.515625 
Q 51.21875 17.328125 49.78125 13 
Q 48.34375 8.6875 45.53125 5.578125 
Q 42.71875 2.484375 38.5625 0.75 
Q 34.421875 -0.984375 29 -0.984375 
Q 23 -0.984375 18.5 1.3125 
Q 14.015625 3.609375 11.03125 7.921875 
Q 8.0625 12.25 6.5625 18.53125 
Q 5.078125 24.8125 5.078125 32.8125 
Q 5.078125 42 6.765625 48.921875 
Q 8.453125 55.859375 11.625 60.5 
Q 14.796875 65.140625 19.359375 67.484375 
Q 23.921875 69.828125 29.6875 69.828125 
Q 33.203125 69.828125 36.28125 69.09375 
Q 39.359375 68.359375 41.875 66.71875 
Q 44.390625 65.09375 46.28125 62.40625 
Q 48.1875 59.71875 49.3125 55.8125 
L 40.921875 54.296875 
Q 39.546875 58.734375 36.546875 60.71875 
Q 33.546875 62.703125 29.59375 62.703125 
Q 25.984375 62.703125 23.046875 60.984375 
Q 20.125 59.28125 18.0625 55.875 
Q 16.015625 52.484375 14.90625 47.359375 
Q 13.8125 42.234375 13.8125 35.40625 
Q 16.21875 39.84375 20.5625 42.15625 
Q 24.90625 44.484375 30.515625 44.484375 
Q 35.203125 44.484375 39.015625 42.96875 
Q 42.828125 41.453125 45.53125 38.59375 
Q 48.25 35.75 49.734375 31.671875 
Q 51.21875 27.59375 51.21875 22.515625 
z
M 42.28125 22.125 
Q 42.28125 25.6875 41.40625 28.5625 
Q 40.53125 31.453125 38.765625 33.46875 
Q 37.015625 35.5 34.421875 36.59375 
Q 31.84375 37.703125 28.421875 37.703125 
Q 26.03125 37.703125 23.578125 36.984375 
Q 21.140625 36.28125 19.15625 34.6875 
Q 17.1875 33.109375 15.9375 30.515625 
Q 14.703125 27.9375 14.703125 24.21875 
Q 14.703125 20.40625 15.671875 17.109375 
Q 16.65625 13.8125 18.484375 11.375 
Q 20.3125 8.9375 22.890625 7.515625 
Q 25.484375 6.109375 28.71875 6.109375 
Q 31.890625 6.109375 34.40625 7.203125 
Q 36.921875 8.296875 38.671875 10.375 
Q 40.4375 12.453125 41.359375 15.421875 
Q 42.28125 18.40625 42.28125 22.125 
z
" id="LiberationSans-54"/>
      </defs>
      <g style="fill:#262626;" transform="translate(30.6 167.872581)scale(0.1 -0.1)">
       <use xlink:href="#LiberationSans-48"/>
       <use x="55.615234" xlink:href="#LiberationSans-46"/>
       <use x="83.398438" xlink:href="#LiberationSans-54"/>
      </g>
     </g>
    </g>
    <g id="ytick_4">
     <g id="line2d_10">
      <g>
       <use style="fill:#262626;stroke:#262626;stroke-width:0.8;" x="54" xlink:href="#mceda025fa6" y="133.725448"/>
      </g>
     </g>
     <g id="text_11">
      <!-- 0.7 -->
      <defs>
       <path d="M 50.59375 61.671875 
Q 45.40625 53.765625 41.0625 46.453125 
Q 36.71875 39.15625 33.59375 31.75 
Q 30.46875 24.359375 28.734375 16.578125 
Q 27 8.796875 27 0 
L 17.828125 0 
Q 17.828125 8.25 19.78125 16.1875 
Q 21.734375 24.125 25.046875 31.765625 
Q 28.375 39.40625 32.765625 46.78125 
Q 37.15625 54.15625 42.09375 61.328125 
L 5.125 61.328125 
L 5.125 68.796875 
L 50.59375 68.796875 
z
" id="LiberationSans-55"/>
      </defs>
      <g style="fill:#262626;" transform="translate(30.6 137.348885)scale(0.1 -0.1)">
       <use xlink:href="#LiberationSans-48"/>
       <use x="55.615234" xlink:href="#LiberationSans-46"/>
       <use x="83.398438" xlink:href="#LiberationSans-55"/>
      </g>
     </g>
    </g>
    <g id="ytick_5">
     <g id="line2d_11">
      <g>
       <use style="fill:#262626;stroke:#262626;stroke-width:0.8;" x="54" xlink:href="#mceda025fa6" y="103.201752"/>
      </g>
     </g>
     <g id="text_12">
      <!-- 0.8 -->
      <defs>
       <path d="M 51.265625 19.1875 
Q 51.265625 14.796875 49.875 11.109375 
Q 48.484375 7.421875 45.625 4.734375 
Q 42.78125 2.046875 38.328125 0.53125 
Q 33.890625 -0.984375 27.828125 -0.984375 
Q 21.78125 -0.984375 17.359375 0.53125 
Q 12.9375 2.046875 10.03125 4.703125 
Q 7.125 7.375 5.734375 11.0625 
Q 4.34375 14.75 4.34375 19.09375 
Q 4.34375 22.859375 5.484375 25.78125 
Q 6.640625 28.71875 8.5625 30.828125 
Q 10.5 32.953125 12.96875 34.25 
Q 15.4375 35.546875 18.0625 35.984375 
L 18.0625 36.1875 
Q 15.1875 36.859375 12.90625 38.375 
Q 10.640625 39.890625 9.09375 42.015625 
Q 7.5625 44.140625 6.75 46.71875 
Q 5.953125 49.3125 5.953125 52.203125 
Q 5.953125 55.8125 7.34375 59 
Q 8.734375 62.203125 11.46875 64.625 
Q 14.203125 67.046875 18.25 68.4375 
Q 22.3125 69.828125 27.640625 69.828125 
Q 33.25 69.828125 37.375 68.40625 
Q 41.5 67 44.203125 64.578125 
Q 46.921875 62.15625 48.234375 58.9375 
Q 49.5625 55.71875 49.5625 52.09375 
Q 49.5625 49.265625 48.75 46.671875 
Q 47.953125 44.09375 46.40625 41.96875 
Q 44.875 39.84375 42.59375 38.34375 
Q 40.328125 36.859375 37.359375 36.28125 
L 37.359375 36.078125 
Q 40.328125 35.59375 42.859375 34.296875 
Q 45.40625 33.015625 47.265625 30.890625 
Q 49.125 28.765625 50.1875 25.828125 
Q 51.265625 22.90625 51.265625 19.1875 
z
M 40.4375 51.609375 
Q 40.4375 54.203125 39.765625 56.34375 
Q 39.109375 58.5 37.59375 60.03125 
Q 36.078125 61.578125 33.640625 62.421875 
Q 31.203125 63.28125 27.640625 63.28125 
Q 24.171875 63.28125 21.78125 62.421875 
Q 19.390625 61.578125 17.84375 60.03125 
Q 16.3125 58.5 15.625 56.34375 
Q 14.9375 54.203125 14.9375 51.609375 
Q 14.9375 49.5625 15.46875 47.40625 
Q 16.015625 45.265625 17.421875 43.5 
Q 18.84375 41.75 21.328125 40.625 
Q 23.828125 39.5 27.734375 39.5 
Q 31.890625 39.5 34.40625 40.625 
Q 36.921875 41.75 38.25 43.5 
Q 39.59375 45.265625 40.015625 47.40625 
Q 40.4375 49.5625 40.4375 51.609375 
z
M 42.140625 20.015625 
Q 42.140625 22.515625 41.453125 24.828125 
Q 40.765625 27.15625 39.109375 28.9375 
Q 37.453125 30.71875 34.640625 31.8125 
Q 31.84375 32.90625 27.640625 32.90625 
Q 23.78125 32.90625 21.0625 31.8125 
Q 18.359375 30.71875 16.671875 28.90625 
Q 14.984375 27.09375 14.203125 24.71875 
Q 13.421875 22.359375 13.421875 19.828125 
Q 13.421875 16.65625 14.203125 14.03125 
Q 14.984375 11.421875 16.6875 9.546875 
Q 18.40625 7.671875 21.1875 6.640625 
Q 23.96875 5.609375 27.9375 5.609375 
Q 31.9375 5.609375 34.671875 6.640625 
Q 37.40625 7.671875 39.0625 9.546875 
Q 40.71875 11.421875 41.421875 14.078125 
Q 42.140625 16.75 42.140625 20.015625 
z
" id="LiberationSans-56"/>
      </defs>
      <g style="fill:#262626;" transform="translate(30.6 106.82519)scale(0.1 -0.1)">
       <use xlink:href="#LiberationSans-48"/>
       <use x="55.615234" xlink:href="#LiberationSans-46"/>
       <use x="83.398438" xlink:href="#LiberationSans-56"/>
      </g>
     </g>
    </g>
    <g id="ytick_6">
     <g id="line2d_12">
      <g>
       <use style="fill:#262626;stroke:#262626;stroke-width:0.8;" x="54" xlink:href="#mceda025fa6" y="72.678057"/>
      </g>
     </g>
     <g id="text_13">
      <!-- 0.9 -->
      <defs>
       <path d="M 50.875 35.796875 
Q 50.875 26.609375 49.140625 19.703125 
Q 47.40625 12.796875 44.1875 8.203125 
Q 40.96875 3.609375 36.34375 1.3125 
Q 31.734375 -0.984375 25.984375 -0.984375 
Q 22.015625 -0.984375 18.84375 -0.171875 
Q 15.671875 0.640625 13.171875 2.34375 
Q 10.6875 4.046875 8.921875 6.78125 
Q 7.171875 9.515625 6.109375 13.375 
L 14.5 14.703125 
Q 15.875 10.25 18.78125 8.171875 
Q 21.6875 6.109375 26.125 6.109375 
Q 29.6875 6.109375 32.640625 7.78125 
Q 35.59375 9.46875 37.671875 12.84375 
Q 39.75 16.21875 40.921875 21.296875 
Q 42.09375 26.375 42.1875 33.203125 
Q 41.15625 30.90625 39.375 29.09375 
Q 37.59375 27.296875 35.328125 26.046875 
Q 33.0625 24.8125 30.421875 24.140625 
Q 27.78125 23.484375 25.09375 23.484375 
Q 20.40625 23.484375 16.625 25.171875 
Q 12.84375 26.859375 10.203125 29.875 
Q 7.5625 32.90625 6.125 37.171875 
Q 4.6875 41.453125 4.6875 46.6875 
Q 4.6875 52 6.21875 56.296875 
Q 7.765625 60.59375 10.6875 63.59375 
Q 13.625 66.609375 17.890625 68.21875 
Q 22.171875 69.828125 27.59375 69.828125 
Q 39.0625 69.828125 44.96875 61.328125 
Q 50.875 52.828125 50.875 35.796875 
z
M 41.3125 44.28125 
Q 41.3125 48.09375 40.40625 51.453125 
Q 39.5 54.828125 37.71875 57.3125 
Q 35.9375 59.8125 33.328125 61.25 
Q 30.71875 62.703125 27.296875 62.703125 
Q 24.125 62.703125 21.578125 61.578125 
Q 19.046875 60.453125 17.28125 58.375 
Q 15.53125 56.296875 14.578125 53.3125 
Q 13.625 50.34375 13.625 46.6875 
Q 13.625 43.21875 14.46875 40.234375 
Q 15.328125 37.25 17.03125 35.078125 
Q 18.75 32.90625 21.28125 31.65625 
Q 23.828125 30.421875 27.203125 30.421875 
Q 29.640625 30.421875 32.15625 31.25 
Q 34.671875 32.078125 36.6875 33.78125 
Q 38.71875 35.5 40.015625 38.109375 
Q 41.3125 40.71875 41.3125 44.28125 
z
" id="LiberationSans-57"/>
      </defs>
      <g style="fill:#262626;" transform="translate(30.6 76.301494)scale(0.1 -0.1)">
       <use xlink:href="#LiberationSans-48"/>
       <use x="55.615234" xlink:href="#LiberationSans-46"/>
       <use x="83.398438" xlink:href="#LiberationSans-57"/>
      </g>
     </g>
    </g>
    <g id="ytick_7">
     <g id="line2d_13">
      <g>
       <use style="fill:#262626;stroke:#262626;stroke-width:0.8;" x="54" xlink:href="#mceda025fa6" y="42.154361"/>
      </g>
     </g>
     <g id="text_14">
      <!-- 1.0 -->
      <g style="fill:#262626;" transform="translate(30.6 45.777799)scale(0.1 -0.1)">
       <use xlink:href="#LiberationSans-49"/>
       <use x="55.615234" xlink:href="#LiberationSans-46"/>
       <use x="83.398438" xlink:href="#LiberationSans-48"/>
      </g>
     </g>
    </g>
    <g id="text_15">
     <!-- Accuracy -->
     <defs>
      <path d="M 56.984375 0 
L 49.125 20.125 
L 17.78125 20.125 
L 9.859375 0 
L 0.203125 0 
L 28.265625 68.796875 
L 38.875 68.796875 
L 66.5 0 
z
M 37.5 50.09375 
Q 36.71875 52.046875 36 54.046875 
Q 35.296875 56.0625 34.765625 57.6875 
Q 34.234375 59.328125 33.859375 60.421875 
Q 33.5 61.53125 33.453125 61.765625 
Q 33.34375 61.53125 33 60.40625 
Q 32.671875 59.28125 32.109375 57.609375 
Q 31.546875 55.953125 30.828125 53.953125 
Q 30.125 51.953125 29.390625 50 
L 20.609375 27.390625 
L 46.34375 27.390625 
z
" id="LiberationSans-65"/>
      <path d="M 15.328125 52.828125 
L 15.328125 19.34375 
Q 15.328125 15.484375 15.890625 12.890625 
Q 16.453125 10.296875 17.71875 8.703125 
Q 19 7.125 21.0625 6.46875 
Q 23.140625 5.8125 26.21875 5.8125 
Q 29.34375 5.8125 31.859375 6.90625 
Q 34.375 8.015625 36.15625 10.078125 
Q 37.9375 12.15625 38.90625 15.203125 
Q 39.890625 18.265625 39.890625 22.21875 
L 39.890625 52.828125 
L 48.6875 52.828125 
L 48.6875 11.28125 
Q 48.6875 9.625 48.703125 7.78125 
Q 48.734375 5.953125 48.78125 4.3125 
Q 48.828125 2.6875 48.875 1.515625 
Q 48.921875 0.34375 48.96875 0 
L 40.671875 0 
Q 40.625 0.25 40.578125 1.3125 
Q 40.53125 2.390625 40.453125 3.78125 
Q 40.375 5.171875 40.328125 6.609375 
Q 40.28125 8.0625 40.28125 9.03125 
L 40.140625 9.03125 
Q 38.875 6.734375 37.359375 4.875 
Q 35.84375 3.03125 33.84375 1.734375 
Q 31.84375 0.4375 29.25 -0.265625 
Q 26.65625 -0.984375 23.25 -0.984375 
Q 18.84375 -0.984375 15.671875 0.09375 
Q 12.5 1.171875 10.453125 3.421875 
Q 8.40625 5.671875 7.453125 9.1875 
Q 6.5 12.703125 6.5 17.625 
L 6.5 52.828125 
z
" id="LiberationSans-117"/>
      <path d="M 6.9375 0 
L 6.9375 40.53125 
Q 6.9375 42.1875 6.90625 43.921875 
Q 6.890625 45.65625 6.828125 47.265625 
Q 6.78125 48.875 6.734375 50.28125 
Q 6.6875 51.703125 6.640625 52.828125 
L 14.9375 52.828125 
Q 14.984375 51.703125 15.0625 50.265625 
Q 15.140625 48.828125 15.203125 47.3125 
Q 15.28125 45.796875 15.296875 44.40625 
Q 15.328125 43.015625 15.328125 42.046875 
L 15.53125 42.046875 
Q 16.453125 45.0625 17.5 47.28125 
Q 18.5625 49.515625 19.96875 50.953125 
Q 21.390625 52.390625 23.34375 53.09375 
Q 25.296875 53.8125 28.078125 53.8125 
Q 29.15625 53.8125 30.125 53.640625 
Q 31.109375 53.46875 31.640625 53.328125 
L 31.640625 45.265625 
Q 30.765625 45.515625 29.59375 45.625 
Q 28.421875 45.75 26.953125 45.75 
Q 23.921875 45.75 21.796875 44.375 
Q 19.671875 43.015625 18.328125 40.59375 
Q 17 38.1875 16.359375 34.84375 
Q 15.71875 31.5 15.71875 27.546875 
L 15.71875 0 
z
" id="LiberationSans-114"/>
      <path d="M 20.21875 -0.984375 
Q 12.25 -0.984375 8.25 3.21875 
Q 4.25 7.421875 4.25 14.75 
Q 4.25 19.96875 6.21875 23.3125 
Q 8.203125 26.65625 11.390625 28.5625 
Q 14.59375 30.46875 18.6875 31.203125 
Q 22.796875 31.9375 27.046875 32.03125 
L 38.921875 32.234375 
L 38.921875 35.109375 
Q 38.921875 38.375 38.234375 40.671875 
Q 37.546875 42.96875 36.125 44.375 
Q 34.71875 45.796875 32.59375 46.453125 
Q 30.46875 47.125 27.59375 47.125 
Q 25.046875 47.125 23 46.75 
Q 20.953125 46.390625 19.4375 45.4375 
Q 17.921875 44.484375 16.984375 42.84375 
Q 16.0625 41.21875 15.765625 38.71875 
L 6.59375 39.546875 
Q 7.078125 42.671875 8.4375 45.28125 
Q 9.8125 47.90625 12.328125 49.796875 
Q 14.84375 51.703125 18.625 52.75 
Q 22.40625 53.8125 27.78125 53.8125 
Q 37.75 53.8125 42.765625 49.234375 
Q 47.796875 44.671875 47.796875 36.03125 
L 47.796875 13.28125 
Q 47.796875 9.375 48.828125 7.390625 
Q 49.859375 5.421875 52.734375 5.421875 
Q 53.46875 5.421875 54.203125 5.515625 
Q 54.9375 5.609375 55.609375 5.765625 
L 55.609375 0.296875 
Q 53.953125 -0.09375 52.3125 -0.28125 
Q 50.6875 -0.484375 48.828125 -0.484375 
Q 46.34375 -0.484375 44.5625 0.171875 
Q 42.78125 0.828125 41.65625 2.171875 
Q 40.53125 3.515625 39.9375 5.484375 
Q 39.359375 7.46875 39.203125 10.109375 
L 38.921875 10.109375 
Q 37.5 7.5625 35.8125 5.515625 
Q 34.125 3.46875 31.875 2.03125 
Q 29.640625 0.59375 26.78125 -0.1875 
Q 23.921875 -0.984375 20.21875 -0.984375 
z
M 22.21875 5.609375 
Q 26.421875 5.609375 29.5625 7.140625 
Q 32.71875 8.6875 34.78125 11.078125 
Q 36.859375 13.484375 37.890625 16.3125 
Q 38.921875 19.140625 38.921875 21.734375 
L 38.921875 26.078125 
L 29.296875 25.875 
Q 26.078125 25.828125 23.171875 25.40625 
Q 20.265625 25 18.0625 23.78125 
Q 15.875 22.5625 14.578125 20.359375 
Q 13.28125 18.171875 13.28125 14.59375 
Q 13.28125 10.296875 15.59375 7.953125 
Q 17.921875 5.609375 22.21875 5.609375 
z
" id="LiberationSans-97"/>
      <path d="M 29.5 0 
Q 27.640625 -4.78125 25.703125 -8.609375 
Q 23.78125 -12.453125 21.390625 -15.15625 
Q 19 -17.875 16.0625 -19.3125 
Q 13.140625 -20.75 9.328125 -20.75 
Q 7.671875 -20.75 6.25 -20.65625 
Q 4.828125 -20.5625 3.265625 -20.21875 
L 3.265625 -13.625 
Q 4.203125 -13.765625 5.375 -13.84375 
Q 6.546875 -13.921875 7.375 -13.921875 
Q 11.234375 -13.921875 14.546875 -11.03125 
Q 17.875 -8.15625 20.359375 -1.859375 
L 21.1875 0.25 
L 0.25 52.828125 
L 9.625 52.828125 
L 20.75 23.640625 
Q 21.234375 22.3125 21.984375 20.109375 
Q 22.75 17.921875 23.5 15.71875 
Q 24.265625 13.53125 24.84375 11.765625 
Q 25.4375 10.015625 25.53125 9.578125 
Q 25.6875 10.109375 26.25 11.6875 
Q 26.8125 13.28125 27.515625 15.234375 
Q 28.21875 17.1875 28.953125 19.1875 
Q 29.6875 21.1875 30.171875 22.65625 
L 40.53125 52.828125 
L 49.8125 52.828125 
z
" id="LiberationSans-121"/>
     </defs>
     <g style="fill:#262626;" transform="translate(24.525 163.840937)rotate(-90)scale(0.1 -0.1)">
      <use xlink:href="#LiberationSans-65"/>
      <use x="66.699219" xlink:href="#LiberationSans-99"/>
      <use x="116.699219" xlink:href="#LiberationSans-99"/>
      <use x="166.699219" xlink:href="#LiberationSans-117"/>
      <use x="222.314453" xlink:href="#LiberationSans-114"/>
      <use x="255.615234" xlink:href="#LiberationSans-97"/>
      <use x="311.230469" xlink:href="#LiberationSans-99"/>
      <use x="361.230469" xlink:href="#LiberationSans-121"/>
     </g>
    </g>
   </g>
   <g id="line2d_14">
    <path clip-path="url(#pa178e580c7)" d="M 69.218182 242.116364 
L 70.393331 169.018472 
L 71.56848 129.051506 
L 72.743629 116.110732 
L 73.918779 105.173076 
L 75.093928 95.856986 
L 76.269077 90.833297 
L 78.619375 82.916214 
L 79.794524 80.150003 
L 83.319972 74.712968 
L 84.495121 73.663717 
L 85.67027 72.360102 
L 90.370867 68.544642 
L 91.546016 68.035913 
L 92.721165 67.717957 
L 93.896314 66.891275 
L 95.071464 66.446139 
L 96.246613 65.683045 
L 97.421762 65.492271 
L 98.596911 65.14252 
L 99.77206 64.66559 
L 100.94721 64.697381 
L 102.122359 63.902495 
L 104.472657 63.775312 
L 105.647806 63.139401 
L 106.822955 63.234788 
L 107.998105 62.726059 
L 109.173254 62.471696 
L 110.348403 62.567083 
L 111.523552 62.312718 
L 112.698701 61.708602 
L 113.87385 61.263465 
L 115.049 61.549625 
L 119.749596 60.88192 
L 122.099895 60.722941 
L 123.275044 60.563962 
L 124.450193 60.214212 
L 125.625342 60.08703 
L 126.800491 60.118826 
L 127.975641 59.705484 
L 130.325939 59.546507 
L 131.501088 59.45112 
L 132.676237 59.069575 
L 133.851386 59.260348 
L 135.026536 58.878802 
L 136.201685 58.910596 
L 138.551983 58.529051 
L 139.727132 58.81521 
L 140.902282 58.433665 
L 143.25258 58.274687 
L 146.778027 58.147506 
L 147.953177 57.82955 
L 149.128326 58.052119 
L 150.303475 57.606981 
L 151.478624 57.670573 
L 152.653773 57.416208 
L 153.828922 57.575186 
L 156.179221 57.225435 
L 158.529519 57.384413 
L 159.704668 57.066458 
L 160.879817 57.161844 
L 162.054967 56.90748 
L 165.580414 56.843889 
L 166.755563 56.462344 
L 169.105862 56.90748 
L 170.281011 56.748503 
L 171.45616 56.335162 
L 174.981608 56.462344 
L 178.507055 56.430548 
L 179.682204 56.55773 
L 183.207652 56.049001 
L 184.382801 56.27157 
L 187.908249 55.794638 
L 189.083398 55.92182 
L 190.258547 55.762843 
L 191.433696 55.762843 
L 192.608845 55.508479 
L 197.309442 55.444888 
L 202.010039 55.158728 
L 203.185188 55.126932 
L 205.535486 54.713591 
L 209.060934 54.745386 
L 210.236083 54.618204 
L 211.411232 54.745386 
L 212.586381 54.618204 
L 213.76153 54.681795 
L 214.93668 54.554613 
L 217.286978 54.586409 
L 218.462127 54.427431 
L 219.637276 54.522818 
L 223.162724 54.109475 
L 225.513022 54.332045 
L 226.688171 54.300249 
L 227.86332 54.395636 
L 229.03847 54.332045 
L 230.213619 54.014089 
L 231.388768 54.109477 
L 232.563917 53.855113 
L 233.739066 53.759726 
L 234.914216 54.045886 
L 236.089365 53.791521 
L 237.264514 53.823316 
L 238.439663 53.473566 
L 240.789961 53.696134 
L 241.965111 53.473566 
L 244.315409 53.409975 
L 245.490558 53.282792 
L 247.840856 53.473566 
L 249.016006 53.250997 
L 250.191155 53.44177 
L 252.541453 53.028429 
L 253.716602 53.028429 
L 254.891751 53.187406 
L 256.066901 52.901247 
L 258.417199 52.964838 
L 259.592348 53.155611 
L 261.942647 53.028429 
L 263.117796 52.678677 
L 264.292945 52.519701 
L 265.468094 52.86945 
L 266.643243 52.964838 
L 267.818392 52.742268 
L 271.34384 52.646882 
L 272.518989 52.328928 
L 273.694138 52.392519 
L 274.869287 52.265336 
L 276.044437 52.45611 
L 278.394735 52.201745 
L 279.569884 52.328927 
L 280.745033 52.201745 
L 281.920183 51.947382 
L 284.270481 52.265336 
L 285.44563 52.074563 
L 287.795928 52.042768 
L 290.146227 51.8202 
L 292.496525 52.297132 
L 293.671674 52.10636 
L 294.846823 52.074564 
L 297.197122 51.693018 
L 298.372271 51.947382 
L 299.54742 51.597631 
L 301.897718 51.406858 
L 303.072868 51.661223 
L 304.248017 51.534041 
L 305.423166 51.661222 
L 307.773464 51.311473 
L 308.948614 51.311472 
L 310.123763 51.502246 
L 311.298912 51.279677 
L 315.999509 51.120699 
L 317.174658 51.311472 
L 318.349807 51.18429 
L 319.524956 51.247881 
L 320.700105 50.993517 
L 321.875254 51.18429 
L 324.225553 51.057109 
L 327.751 50.770948 
L 328.92615 50.993517 
L 332.451597 50.866335 
L 333.626746 50.929926 
L 334.801895 50.770947 
L 337.152194 50.675561 
L 338.327343 50.452991 
L 344.203089 50.707356 
L 345.378238 50.421196 
L 346.553387 50.675561 
L 347.728536 50.770947 
L 350.078835 50.611969 
L 351.253984 50.770947 
L 353.604282 50.643765 
L 355.954581 50.484787 
L 360.655177 50.580174 
L 361.830326 50.739151 
L 363.005476 50.484788 
L 364.180625 50.770946 
L 365.355774 50.739152 
L 366.530923 50.516583 
L 367.706072 50.580173 
L 368.881221 50.516582 
L 370.056371 50.643766 
L 371.23152 50.325809 
L 372.406669 50.484789 
L 373.581818 50.452992 
L 373.581818 50.452992 
" style="fill:none;stroke:#1f77b4;stroke-dasharray:5.55,2.4;stroke-dashoffset:0;stroke-width:1.5;"/>
   </g>
   <g id="line2d_15">
    <path clip-path="url(#pa178e580c7)" d="M 69.218182 148.923704 
L 70.393331 104.441778 
L 71.56848 87.749133 
L 72.743629 80.817711 
L 73.918779 77.383793 
L 75.093928 75.317081 
L 76.269077 72.232918 
L 77.444226 69.943643 
L 78.619375 69.562097 
L 79.794524 68.76721 
L 80.969674 67.686164 
L 82.144823 66.986659 
L 83.319972 66.000998 
L 84.495121 64.792767 
L 86.845419 63.838901 
L 90.370867 61.676808 
L 91.546016 61.295261 
L 93.896314 60.691146 
L 95.071464 60.691147 
L 96.246613 59.991645 
L 97.421762 59.482916 
L 98.596911 59.896258 
L 99.77206 58.815211 
L 100.94721 58.624439 
L 104.472657 58.401871 
L 105.647806 58.052119 
L 106.822955 57.988528 
L 107.998105 58.179301 
L 110.348403 57.161844 
L 111.523552 57.4798 
L 112.698701 56.589526 
L 115.049 56.271572 
L 116.224149 56.462345 
L 117.399298 55.762843 
L 118.574447 55.540275 
L 119.749596 55.667456 
L 120.924746 55.413093 
L 122.099895 55.444888 
L 123.275044 54.904365 
L 124.450193 54.872568 
L 125.625342 54.65 
L 126.800491 54.936159 
L 127.975641 54.586409 
L 129.15079 55.381297 
L 130.325939 54.300251 
L 131.501088 54.427431 
L 132.676237 54.332046 
L 133.851386 54.681795 
L 135.026536 54.204864 
L 136.201685 54.586409 
L 137.376834 54.522819 
L 138.551983 54.045886 
L 139.727132 54.332046 
L 140.902282 54.014089 
L 142.077431 53.918704 
L 143.25258 54.014089 
L 145.602878 53.409975 
L 146.778027 53.473566 
L 147.953177 53.250997 
L 149.128326 53.187406 
L 150.303475 53.632543 
L 151.478624 53.314588 
L 152.653773 53.314588 
L 153.828922 53.537157 
L 155.004072 53.314588 
L 156.179221 53.600748 
L 157.35437 53.378179 
L 158.529519 53.409975 
L 159.704668 53.123815 
L 163.230116 53.918702 
L 164.405265 53.505362 
L 165.580414 53.918704 
L 167.930713 53.600748 
L 169.105862 53.696135 
L 170.281011 53.568953 
L 171.45616 53.09202 
L 173.806458 52.996635 
L 174.981608 52.615088 
L 176.156757 52.964838 
L 177.331906 53.028429 
L 178.507055 53.250997 
L 179.682204 52.837656 
L 180.857353 53.187406 
L 182.032503 52.80586 
L 183.207652 52.106358 
L 185.55795 52.297132 
L 187.908249 52.424315 
L 189.083398 52.169949 
L 192.608845 52.646883 
L 194.959144 51.94738 
L 197.309442 52.074562 
L 199.65974 51.597629 
L 200.834889 51.756608 
L 202.010039 52.106358 
L 203.185188 51.979176 
L 204.360337 52.138155 
L 205.535486 51.756608 
L 206.710635 52.615088 
L 207.885784 51.979177 
L 209.060934 52.169949 
L 210.236083 52.519701 
L 211.411232 52.10636 
L 212.586381 52.551495 
L 213.76153 52.360724 
L 214.93668 52.678677 
L 216.111829 52.233539 
L 217.286978 52.551495 
L 218.462127 52.424314 
L 219.637276 52.487905 
L 220.812425 52.233541 
L 221.987575 52.392518 
L 223.162724 52.138154 
L 225.513022 52.869451 
L 226.688171 52.233541 
L 227.86332 52.265336 
L 229.03847 52.646882 
L 230.213619 51.788404 
L 231.388768 52.487905 
L 232.563917 52.233541 
L 233.739066 52.297132 
L 234.914216 52.837655 
L 236.089365 52.774064 
L 237.264514 52.837655 
L 238.439663 52.646882 
L 240.789961 53.060224 
L 241.965111 53.155611 
L 245.490558 52.933042 
L 246.665707 52.964839 
L 247.840856 52.615088 
L 249.016006 53.09202 
L 250.191155 52.456108 
L 251.366304 53.187406 
L 253.716602 52.551495 
L 254.891751 52.456109 
L 256.066901 52.710473 
L 257.24205 52.424314 
L 258.417199 51.693017 
L 259.592348 52.456109 
L 260.767497 52.106359 
L 263.117796 52.16995 
L 264.292945 52.042768 
L 265.468094 52.233541 
L 267.818392 52.265336 
L 268.993542 52.328928 
L 270.168691 52.774064 
L 271.34384 52.487906 
L 272.518989 52.774066 
L 273.694138 52.742268 
L 276.044437 52.265336 
L 277.219586 52.392518 
L 278.394735 53.060223 
L 279.569884 52.360723 
L 280.745033 52.678677 
L 283.095332 52.646882 
L 284.270481 53.123814 
L 286.620779 52.678677 
L 288.971078 52.964837 
L 290.146227 53.028429 
L 293.671674 52.265336 
L 294.846823 52.774065 
L 296.021973 52.901246 
L 297.197122 52.615088 
L 298.372271 52.964837 
L 299.54742 52.837655 
L 300.722569 52.964837 
L 301.897718 52.551495 
L 303.072868 52.996631 
L 304.248017 52.805858 
L 305.423166 52.774064 
L 306.598315 52.328926 
L 307.773464 53.092019 
L 308.948614 52.742267 
L 310.123763 52.964836 
L 311.298912 52.837654 
L 312.474061 53.092019 
L 314.824359 52.615088 
L 315.999509 52.933042 
L 317.174658 52.456107 
L 318.349807 52.392517 
L 319.524956 52.678676 
L 320.700105 52.646883 
L 321.875254 52.487906 
L 323.050404 52.074563 
L 324.225553 52.424314 
L 326.575851 53.473565 
L 327.751 52.58329 
L 330.101299 52.86945 
L 331.276448 53.346384 
L 332.451597 53.060224 
L 333.626746 53.282794 
L 334.801895 53.346384 
L 335.977045 53.759725 
L 337.152194 52.901247 
L 338.327343 52.901245 
L 339.502492 52.710472 
L 340.677641 52.964838 
L 341.85279 52.933042 
L 343.02794 52.551495 
L 344.203089 53.09202 
L 345.378238 52.424315 
L 346.553387 52.360723 
L 347.728536 52.010972 
L 348.903686 52.424315 
L 350.078835 52.360721 
L 351.253984 52.16995 
L 352.429133 52.774065 
L 354.779431 52.805859 
L 358.304879 52.201745 
L 359.480028 52.805859 
L 360.655177 52.392518 
L 361.830326 52.233541 
L 363.005476 51.915586 
L 364.180625 51.724812 
L 365.355774 52.074563 
L 366.530923 51.661222 
L 367.706072 51.502244 
L 368.881221 52.106358 
L 370.056371 51.851994 
L 371.23152 52.424314 
L 372.406669 52.74227 
L 373.581818 52.297133 
L 373.581818 52.297133 
" style="fill:none;stroke:#ff7f0e;stroke-dasharray:1.5,2.475;stroke-dashoffset:0;stroke-width:1.5;"/>
   </g>
   <g id="line2d_16">
    <path clip-path="url(#pa178e580c7)" d="M 69.218182 155.918719 
L 70.393331 122.310858 
L 71.56848 105.681801 
L 72.743629 93.440531 
L 73.918779 86.763471 
L 75.093928 83.329558 
L 76.269077 80.976689 
L 77.444226 79.418705 
L 78.619375 77.351995 
L 79.794524 75.857606 
L 80.969674 74.61758 
L 82.144823 74.617581 
L 83.319972 73.790898 
L 84.495121 73.218579 
L 86.845419 71.819576 
L 88.020569 71.819577 
L 89.195718 71.151871 
L 90.370867 71.056484 
L 95.071464 69.689278 
L 96.246613 69.339528 
L 97.421762 69.339528 
L 98.596911 68.8308 
L 99.77206 68.862596 
L 102.122359 68.322072 
L 104.472657 68.035913 
L 105.647806 67.876936 
L 106.822955 67.431798 
L 107.998105 67.113843 
L 110.348403 66.827683 
L 111.523552 66.509729 
L 112.698701 66.318956 
L 113.87385 66.255365 
L 115.049 66.382547 
L 116.224149 66.128183 
L 117.399298 66.032796 
L 120.924746 65.142521 
L 122.099895 65.237908 
L 123.275044 65.047135 
L 124.450193 65.047135 
L 125.625342 64.411225 
L 126.800491 64.538407 
L 127.975641 64.37943 
L 129.15079 63.966089 
L 131.501088 63.934293 
L 132.676237 63.966089 
L 133.851386 63.584542 
L 137.376834 63.139402 
L 138.551983 63.234791 
L 139.727132 62.885037 
L 140.902282 63.075811 
L 142.077431 62.72606 
L 143.25258 62.662469 
L 144.427729 62.757856 
L 146.778027 62.4399 
L 147.953177 62.408106 
L 149.128326 62.249128 
L 150.303475 62.37631 
L 151.478624 62.090149 
L 153.828922 62.153739 
L 155.004072 61.931172 
L 156.179221 62.058355 
L 158.529519 61.994762 
L 159.704668 61.772193 
L 162.054967 61.58142 
L 163.230116 61.390646 
L 164.405265 61.549625 
L 165.580414 61.486034 
L 167.930713 61.136282 
L 169.105862 61.199873 
L 170.281011 61.072691 
L 173.806458 61.199873 
L 174.981608 61.009102 
L 176.156757 61.104488 
L 177.331906 60.818327 
L 178.507055 60.945509 
L 179.682204 60.945509 
L 180.857353 60.691146 
L 182.032503 60.595759 
L 183.207652 60.65935 
L 184.382801 60.532168 
L 187.908249 60.691147 
L 189.083398 60.373191 
L 193.783994 60.436782 
L 196.134293 60.118827 
L 199.65974 60.182418 
L 200.834889 59.991644 
L 202.010039 59.928054 
L 203.185188 60.150622 
L 204.360337 59.928053 
L 206.710635 60.055235 
L 207.885784 59.832667 
L 214.93668 59.73728 
L 217.286978 59.387529 
L 220.812425 59.451122 
L 223.162724 59.482916 
L 225.513022 59.037779 
L 226.688171 59.228552 
L 229.03847 59.069575 
L 232.563917 59.005984 
L 234.914216 58.783415 
L 236.089365 58.878802 
L 238.439663 58.719824 
L 239.614812 58.529051 
L 240.789961 58.719824 
L 241.965111 58.624438 
L 243.14026 58.719824 
L 244.315409 58.497256 
L 245.490558 58.688029 
L 246.665707 58.719824 
L 247.840856 58.46546 
L 249.016006 58.433665 
L 250.191155 58.560847 
L 251.366304 58.211096 
L 252.541453 58.370074 
L 253.716602 58.306483 
L 254.891751 58.11571 
L 256.066901 58.306483 
L 263.117796 58.11571 
L 264.292945 57.956733 
L 267.818392 58.020324 
L 268.993542 57.82955 
L 273.694138 57.861346 
L 286.620779 57.797754 
L 288.971078 57.60698 
L 290.146227 57.638775 
L 291.321376 57.511595 
L 292.496525 57.670572 
L 296.021973 57.60698 
L 297.197122 57.384412 
L 300.722569 57.575186 
L 301.897718 57.225435 
L 304.248017 57.289025 
L 305.423166 57.130048 
L 308.948614 57.289025 
L 310.123763 57.066457 
L 311.298912 57.25723 
L 312.474061 57.289025 
L 313.64921 57.066457 
L 318.349807 56.907478 
L 319.524956 57.098252 
L 320.700105 57.034661 
L 323.050404 57.161844 
L 325.400702 57.034662 
L 330.101299 57.034662 
L 331.276448 56.843888 
L 332.451597 57.034662 
L 339.502492 56.716706 
L 340.677641 56.716708 
L 343.02794 56.557728 
L 346.553387 56.68491 
L 347.728536 56.62132 
L 348.903686 56.780297 
L 350.078835 56.462341 
L 351.253984 56.653115 
L 355.954581 56.557729 
L 357.12973 56.62132 
L 360.655177 56.462342 
L 364.180625 56.525935 
L 366.530923 56.303365 
L 368.881221 56.462342 
L 370.056371 56.366955 
L 372.406669 56.430546 
L 373.581818 56.271568 
L 373.581818 56.271568 
" style="fill:none;stroke:#2ca02c;stroke-dasharray:9.6,2.4,1.5,2.4;stroke-dashoffset:0;stroke-width:1.5;"/>
   </g>
   <g id="line2d_17">
    <path clip-path="url(#pa178e580c7)" d="M 69.218182 85.904993 
L 70.393331 71.056485 
L 71.56848 67.113844 
L 72.743629 64.347632 
L 73.918779 62.66247 
L 75.093928 61.231671 
L 76.269077 60.404987 
L 77.444226 59.101372 
L 78.619375 58.656233 
L 79.794524 58.656233 
L 80.969674 58.306482 
L 83.319972 58.433665 
L 84.495121 58.910598 
L 85.67027 57.765959 
L 86.845419 58.274685 
L 88.020569 57.320819 
L 89.195718 58.306483 
L 92.721165 57.638777 
L 95.071464 57.54339 
L 96.246613 56.748503 
L 97.421762 56.653115 
L 98.596911 56.971069 
L 99.77206 57.861346 
L 100.94721 57.225435 
L 102.122359 56.843889 
L 103.297508 57.384413 
L 104.472657 57.289026 
L 105.647806 57.670572 
L 106.822955 57.829551 
L 107.998105 58.370075 
L 110.348403 58.656234 
L 113.87385 58.751621 
L 115.049 59.196758 
L 116.224149 58.815211 
L 117.399298 58.942392 
L 118.574447 58.624438 
L 119.749596 59.228553 
L 120.924746 59.578304 
L 122.099895 60.150622 
L 123.275044 58.81521 
L 124.450193 60.055236 
L 126.800491 58.306483 
L 127.975641 58.179302 
L 129.15079 58.847008 
L 130.325939 58.211096 
L 131.501088 59.514714 
L 132.676237 58.274689 
L 133.851386 58.05212 
L 135.026536 58.656233 
L 136.201685 58.656234 
L 137.376834 59.101371 
L 138.551983 59.037779 
L 139.727132 59.67369 
L 140.902282 59.164962 
L 142.077431 58.815211 
L 143.25258 58.974188 
L 145.602878 58.306482 
L 146.778027 59.037781 
L 147.953177 58.815212 
L 149.128326 59.196759 
L 150.303475 58.052118 
L 151.478624 57.797753 
L 152.653773 58.656234 
L 153.828922 59.228554 
L 156.179221 58.974189 
L 157.35437 58.910596 
L 158.529519 59.705484 
L 159.704668 59.482916 
L 160.879817 58.751621 
L 162.054967 58.497256 
L 163.230116 58.465462 
L 164.405265 58.560845 
L 165.580414 57.479799 
L 166.755563 58.465459 
L 167.930713 58.433665 
L 169.105862 58.179301 
L 170.281011 58.719824 
L 171.45616 58.719823 
L 172.631309 58.11571 
L 173.806458 58.815211 
L 174.981608 58.592642 
L 176.156757 59.451119 
L 177.331906 59.101369 
L 178.507055 59.260348 
L 179.682204 58.942394 
L 180.857353 59.164961 
L 182.032503 59.928054 
L 183.207652 58.815211 
L 184.382801 58.719824 
L 185.55795 59.005985 
L 186.733099 58.179301 
L 187.908249 59.069575 
L 189.083398 59.32394 
L 190.258547 58.529051 
L 191.433696 57.924936 
L 192.608845 58.179302 
L 193.783994 58.910596 
L 194.959144 58.179301 
L 196.134293 59.673691 
L 197.309442 59.133167 
L 198.484591 58.97419 
L 200.834889 60.691149 
L 202.010039 60.786534 
L 203.185188 60.02344 
L 204.360337 58.688028 
L 205.535486 59.069577 
L 206.710635 58.847008 
L 207.885784 59.10137 
L 209.060934 58.910597 
L 210.236083 59.037779 
L 211.411232 60.691148 
L 212.586381 60.023443 
L 213.76153 59.991646 
L 214.93668 59.705484 
L 216.111829 58.974189 
L 217.286978 60.055237 
L 218.462127 59.641896 
L 219.637276 60.118828 
L 220.812425 60.214213 
L 221.987575 58.942392 
L 223.162724 60.945511 
L 224.337873 60.373193 
L 225.513022 60.754739 
L 226.688171 61.549626 
L 227.86332 61.327059 
L 229.03847 61.835786 
L 230.213619 60.691148 
L 231.388768 60.659352 
L 232.563917 61.835786 
L 233.739066 61.104488 
L 234.914216 61.136286 
L 236.089365 60.691146 
L 237.264514 60.436782 
L 238.439663 60.468578 
L 239.614812 59.769078 
L 240.789961 59.737282 
L 241.965111 60.182421 
L 243.14026 60.055236 
L 245.490558 60.277805 
L 247.840856 60.087032 
L 249.016006 60.087032 
L 250.191155 59.89626 
L 251.366304 59.832667 
L 252.541453 60.055238 
L 253.716602 60.659351 
L 254.891751 60.881921 
L 257.24205 59.355735 
L 258.417199 59.419326 
L 259.592348 59.737281 
L 260.767497 60.373193 
L 261.942647 60.023441 
L 263.117796 57.988528 
L 265.468094 59.228554 
L 267.818392 59.769078 
L 268.993542 60.023443 
L 270.168691 59.196758 
L 271.34384 59.705487 
L 272.518989 59.864463 
L 273.694138 59.451123 
L 274.869287 59.705487 
L 276.044437 59.737283 
L 277.219586 60.722942 
L 278.394735 60.404988 
L 279.569884 59.387531 
L 280.745033 60.246011 
L 281.920183 59.959849 
L 283.095332 59.26035 
L 285.44563 58.719824 
L 286.620779 59.514714 
L 287.795928 59.959852 
L 290.146227 59.928056 
L 291.321376 60.087035 
L 292.496525 60.436784 
L 293.671674 59.610099 
L 294.846823 58.974189 
L 296.021973 59.89626 
L 297.197122 58.974187 
L 298.372271 59.482917 
L 299.54742 59.578304 
L 300.722569 60.214214 
L 301.897718 60.659352 
L 303.072868 60.02344 
L 304.248017 59.610099 
L 305.423166 60.214214 
L 307.773464 61.16808 
L 311.298912 60.945511 
L 312.474061 61.327058 
L 313.64921 61.040897 
L 314.824359 59.864465 
L 315.999509 60.373194 
L 318.349807 60.023441 
L 319.524956 60.18242 
L 320.700105 61.803992 
L 321.875254 60.659353 
L 323.050404 60.468579 
L 324.225553 59.578305 
L 325.400702 61.549628 
L 327.751 59.769076 
L 328.92615 59.705488 
L 330.101299 60.404988 
L 331.276448 60.24601 
L 332.451597 60.754736 
L 333.626746 61.0091 
L 334.801895 60.500374 
L 337.152194 60.468576 
L 338.327343 59.832667 
L 339.502492 60.913715 
L 340.677641 61.613218 
L 341.85279 61.358854 
L 346.553387 61.16808 
L 347.728536 60.786533 
L 348.903686 59.387529 
L 350.078835 61.168079 
L 351.253984 60.627556 
L 352.429133 60.659349 
L 353.604282 60.945508 
L 354.779431 60.72294 
L 355.954581 60.786533 
L 357.12973 60.532169 
L 358.304879 60.65935 
L 359.480028 60.945508 
L 361.830326 60.214214 
L 363.005476 59.959847 
L 364.180625 59.323938 
L 365.355774 60.818329 
L 366.530923 59.419324 
L 367.706072 59.260348 
L 368.881221 59.800872 
L 370.056371 61.327054 
L 371.23152 61.772194 
L 372.406669 61.867581 
L 373.581818 61.549626 
L 373.581818 61.549626 
" style="fill:none;stroke:#d62728;stroke-dasharray:5.55,2.4;stroke-dashoffset:0;stroke-width:1.5;"/>
   </g>
   <g id="line2d_18">
    <path clip-path="url(#pa178e580c7)" d="M 69.218182 236.361374 
L 70.393331 151.117595 
L 71.56848 91.501003 
L 72.743629 76.016586 
L 73.918779 71.597009 
L 75.093928 66.700503 
L 76.269077 64.411223 
L 77.444226 61.613217 
L 78.619375 60.977306 
L 79.794524 59.228552 
L 82.144823 56.589524 
L 83.319972 56.525933 
L 84.495121 55.126931 
L 85.67027 54.395635 
L 86.845419 54.777181 
L 88.020569 53.028429 
L 89.195718 52.742271 
L 90.370867 52.265336 
L 93.896314 51.343266 
L 95.071464 51.311469 
L 96.246613 50.993516 
L 97.421762 50.898127 
L 98.596911 50.643764 
L 99.77206 50.10324 
L 100.94721 49.880671 
L 102.122359 50.135035 
L 103.297508 49.753489 
L 104.472657 50.007853 
L 105.647806 49.626306 
L 106.822955 49.371943 
L 107.998105 49.689899 
L 109.173254 49.117578 
L 110.348403 48.990398 
L 111.523552 49.371943 
L 112.698701 48.799622 
L 113.87385 48.895009 
L 115.049 48.481669 
L 116.224149 48.513464 
L 118.574447 48.195507 
L 119.749596 48.44987 
L 120.924746 48.131916 
L 122.099895 47.941142 
L 123.275044 48.449872 
L 124.450193 47.782166 
L 125.625342 48.386282 
L 126.800491 47.81396 
L 127.975641 47.623187 
L 129.15079 48.100122 
L 130.325939 47.782165 
L 131.501088 47.654982 
L 132.676237 47.782164 
L 135.026536 47.718573 
L 136.201685 47.305232 
L 137.376834 47.273437 
L 138.551983 47.432413 
L 140.902282 47.305232 
L 142.077431 47.559595 
L 143.25258 47.273436 
L 144.427729 47.114458 
L 145.602878 47.24164 
L 146.778027 47.114459 
L 147.953177 47.845757 
L 149.128326 47.050867 
L 150.303475 47.146255 
L 151.478624 46.828299 
L 152.653773 47.273437 
L 153.828922 46.796503 
L 159.704668 47.082663 
L 162.054967 46.732912 
L 163.230116 46.955482 
L 164.405265 46.732914 
L 165.580414 46.796503 
L 167.930713 46.446753 
L 169.105862 46.860096 
L 170.281011 46.351367 
L 171.45616 46.828299 
L 172.631309 46.89189 
L 173.806458 46.828299 
L 174.981608 46.446753 
L 176.156757 46.669322 
L 177.331906 46.510344 
L 179.682204 46.573935 
L 180.857353 46.351367 
L 182.032503 46.446753 
L 183.207652 46.828299 
L 184.382801 46.351367 
L 185.55795 46.510344 
L 186.733099 46.25598 
L 187.908249 46.414958 
L 190.258547 46.54214 
L 191.433696 46.033412 
L 192.608845 46.192388 
L 193.783994 46.224185 
L 194.959144 46.669322 
L 196.134293 46.065206 
L 197.309442 46.287776 
L 198.484591 46.351367 
L 202.010039 46.160594 
L 203.185188 46.128798 
L 204.360337 46.319571 
L 206.710635 46.192388 
L 207.885784 46.351367 
L 209.060934 45.874434 
L 210.236083 46.160594 
L 211.411232 45.938024 
L 212.586381 46.160593 
L 213.76153 46.033412 
L 216.111829 46.001615 
L 217.286978 46.224184 
L 224.337873 46.128798 
L 226.688171 46.097003 
L 227.86332 45.906229 
L 229.03847 45.938025 
L 230.213619 45.779047 
L 231.388768 45.810842 
L 232.563917 46.001615 
L 234.914216 45.715456 
L 236.089365 46.097003 
L 238.439663 45.810842 
L 239.614812 45.779047 
L 240.789961 45.938024 
L 241.965111 45.588274 
L 243.14026 46.001616 
L 244.315409 46.224185 
L 245.490558 45.810842 
L 246.665707 45.874433 
L 247.840856 45.810842 
L 249.016006 46.160594 
L 252.541453 45.747251 
L 256.066901 46.192389 
L 257.24205 45.779048 
L 258.417199 46.828299 
L 259.592348 45.810843 
L 260.767497 46.128797 
L 261.942647 46.097003 
L 263.117796 45.620069 
L 265.468094 45.874434 
L 266.643243 45.938024 
L 267.818392 45.747251 
L 268.993542 45.874433 
L 270.168691 45.715456 
L 272.518989 45.842638 
L 276.044437 45.874434 
L 277.219586 45.556478 
L 278.394735 45.874433 
L 279.569884 45.969821 
L 280.745033 45.715456 
L 281.920183 46.001616 
L 283.095332 45.588274 
L 284.270481 45.810842 
L 285.44563 45.747252 
L 286.620779 46.097002 
L 287.795928 45.588274 
L 288.971078 45.96982 
L 290.146227 45.68366 
L 291.321376 45.556478 
L 292.496525 45.651865 
L 294.846823 45.683661 
L 296.021973 45.68366 
L 297.197122 45.906229 
L 298.372271 45.715456 
L 300.722569 45.588274 
L 301.897718 45.461092 
L 303.072868 45.96982 
L 305.423166 45.556478 
L 306.598315 45.651865 
L 307.773464 45.302114 
L 308.948614 45.556478 
L 311.298912 45.429296 
L 312.474061 45.938025 
L 313.64921 45.365705 
L 314.824359 45.556478 
L 315.999509 45.365705 
L 317.174658 45.461092 
L 318.349807 45.429296 
L 319.524956 45.588274 
L 320.700105 45.33391 
L 321.875254 45.556478 
L 323.050404 45.588274 
L 324.225553 45.302114 
L 325.400702 45.620069 
L 326.575851 45.68366 
L 327.751 45.620069 
L 328.92615 45.779047 
L 330.101299 45.365705 
L 331.276448 45.556478 
L 332.451597 45.206728 
L 333.626746 45.779048 
L 334.801895 45.620069 
L 335.977045 45.68366 
L 337.152194 45.429296 
L 338.327343 45.524683 
L 344.203089 45.429296 
L 345.378238 45.715456 
L 346.553387 45.429296 
L 347.728536 45.651865 
L 348.903686 45.270319 
L 350.078835 45.524683 
L 352.429133 45.302114 
L 353.604282 45.524683 
L 354.779431 45.174933 
L 355.954581 45.461092 
L 357.12973 45.397501 
L 359.480028 45.588274 
L 360.655177 45.492887 
L 361.830326 45.651865 
L 363.005476 45.397501 
L 364.180625 45.492887 
L 365.355774 45.302114 
L 366.530923 45.33391 
L 367.706072 45.556478 
L 370.056371 45.174933 
L 371.23152 45.715457 
L 372.406669 45.461092 
L 373.581818 45.651865 
L 373.581818 45.651865 
" style="fill:none;stroke:#9467bd;stroke-linecap:round;stroke-width:1.5;"/>
   </g>
   <g id="line2d_19">
    <path clip-path="url(#pa178e580c7)" d="M 69.218182 60.945511 
L 70.393331 54.173066 
L 72.743629 49.785284 
L 73.918779 49.435533 
L 75.093928 47.082662 
L 76.269077 46.89189 
L 77.444226 46.128797 
L 78.619375 46.351366 
L 79.794524 46.065206 
L 80.969674 46.383162 
L 83.319972 45.651865 
L 85.67027 45.651865 
L 86.845419 45.238524 
L 88.020569 45.270319 
L 89.195718 45.111342 
L 90.370867 45.33391 
L 91.546016 45.047751 
L 92.721165 45.429296 
L 93.896314 45.143137 
L 95.071464 45.111342 
L 96.246613 44.825182 
L 97.421762 44.952364 
L 99.77206 45.397501 
L 100.94721 44.920569 
L 102.122359 44.952364 
L 103.297508 45.33391 
L 104.472657 45.015955 
L 105.647806 45.556478 
L 107.998105 45.079546 
L 109.173254 45.270319 
L 110.348403 45.33391 
L 111.523552 44.98416 
L 112.698701 45.365705 
L 113.87385 45.461092 
L 115.049 45.111342 
L 116.224149 45.302114 
L 118.574447 45.143137 
L 119.749596 45.397501 
L 120.924746 45.015955 
L 122.099895 44.888773 
L 123.275044 45.143137 
L 124.450193 45.079546 
L 125.625342 45.397501 
L 126.800491 45.397501 
L 127.975641 44.825182 
L 129.15079 44.729796 
L 130.325939 45.206728 
L 131.501088 44.666205 
L 132.676237 45.015955 
L 133.851386 45.111342 
L 135.026536 44.729796 
L 136.201685 44.761591 
L 137.376834 45.238524 
L 138.551983 44.856978 
L 139.727132 45.111342 
L 140.902282 44.698 
L 142.077431 45.047751 
L 144.427729 45.174933 
L 145.602878 45.079546 
L 146.778027 45.461092 
L 147.953177 45.015955 
L 150.303475 45.302114 
L 151.478624 45.143137 
L 152.653773 45.33391 
L 153.828922 45.715456 
L 155.004072 44.825182 
L 156.179221 45.270319 
L 158.529519 44.761591 
L 162.054967 44.761591 
L 173.806458 44.729796 
L 174.981608 44.570818 
L 176.156757 44.793387 
L 177.331906 44.698 
L 178.507055 44.793387 
L 180.857353 44.634409 
L 182.032503 44.825182 
L 183.207652 44.729796 
L 185.55795 44.793387 
L 186.733099 45.96982 
L 187.908249 44.920569 
L 193.783994 44.698 
L 194.959144 44.570818 
L 196.134293 44.634409 
L 198.484591 44.570818 
L 200.834889 44.602614 
L 203.185188 44.570818 
L 205.535486 44.602614 
L 210.236083 44.666205 
L 211.411232 44.570818 
L 212.586381 44.666205 
L 217.286978 44.602614 
L 218.462127 44.698 
L 219.637276 44.602614 
L 224.337873 44.729796 
L 226.688171 44.570818 
L 229.03847 44.666205 
L 234.914216 44.602614 
L 241.965111 44.729796 
L 243.14026 44.570818 
L 245.490558 44.729796 
L 250.191155 44.698 
L 251.366304 44.856978 
L 253.716602 44.761591 
L 268.993542 44.698 
L 270.168691 45.68366 
L 271.34384 44.729796 
L 272.518989 45.238524 
L 273.694138 44.761591 
L 274.869287 44.793387 
L 276.044437 44.602614 
L 277.219586 44.698 
L 280.745033 44.666205 
L 281.920183 44.761591 
L 283.095332 44.634409 
L 284.270481 44.698 
L 285.44563 44.634409 
L 286.620779 44.729796 
L 290.146227 44.570818 
L 291.321376 44.729796 
L 293.671674 44.634409 
L 294.846823 44.729796 
L 303.072868 44.507227 
L 304.248017 44.666205 
L 305.423166 44.602614 
L 307.773464 44.634409 
L 312.474061 44.602614 
L 314.824359 44.570818 
L 331.276448 44.634409 
L 332.451597 44.443636 
L 334.801895 44.539023 
L 335.977045 44.475432 
L 338.327343 44.570818 
L 339.502492 44.507227 
L 340.677641 44.570818 
L 341.85279 44.507227 
L 345.378238 44.634409 
L 346.553387 44.539023 
L 351.253984 44.570818 
L 373.581818 44.602614 
L 373.581818 44.602614 
" style="fill:none;stroke:#8c564b;stroke-linecap:round;stroke-width:1.5;"/>
   </g>
   <g id="line2d_20">
    <path clip-path="url(#pa178e580c7)" d="M 69.218182 118.463601 
L 70.393331 71.088281 
L 71.56848 62.185538 
L 72.743629 58.719824 
L 73.918779 57.25723 
L 75.093928 56.843889 
L 76.269077 53.727931 
L 77.444226 53.314588 
L 78.619375 52.201745 
L 79.794524 51.883789 
L 80.969674 51.375061 
L 82.144823 50.739151 
L 83.319972 50.707355 
L 84.495121 50.421196 
L 85.67027 49.689899 
L 86.845419 49.594511 
L 88.020569 49.340148 
L 89.195718 48.831418 
L 90.370867 48.926804 
L 91.546016 48.545259 
L 92.721165 48.60885 
L 93.896314 48.32269 
L 95.071464 48.418075 
L 98.596911 47.782165 
L 99.77206 47.686778 
L 100.94721 47.464208 
L 102.122359 47.559596 
L 103.297508 47.368821 
L 104.472657 47.050866 
L 105.647806 46.95548 
L 106.822955 47.114457 
L 107.998105 46.828298 
L 109.173254 47.019071 
L 110.348403 47.750368 
L 111.523552 47.114457 
L 112.698701 46.987276 
L 113.87385 46.701116 
L 115.049 46.637525 
L 116.224149 46.764707 
L 118.574447 46.478547 
L 119.749596 46.828298 
L 122.099895 46.287775 
L 124.450193 46.573934 
L 125.625342 46.31957 
L 127.975641 46.478547 
L 129.15079 46.542138 
L 130.325939 46.224184 
L 132.676237 46.128797 
L 133.851386 46.160593 
L 135.026536 45.906229 
L 136.201685 46.31957 
L 137.376834 45.96982 
L 138.551983 46.097002 
L 140.902282 46.033411 
L 142.077431 45.810842 
L 143.25258 46.224184 
L 144.427729 45.747251 
L 145.602878 45.906229 
L 146.778027 45.842638 
L 147.953177 46.128797 
L 149.128326 45.874433 
L 150.303475 46.351366 
L 152.653773 45.938024 
L 153.828922 45.906229 
L 155.004072 46.033411 
L 156.179221 45.842638 
L 157.35437 45.938024 
L 158.529519 45.715456 
L 166.755563 45.620069 
L 167.930713 45.938024 
L 169.105862 45.715456 
L 171.45616 45.810842 
L 173.806458 45.651865 
L 178.507055 45.906229 
L 179.682204 45.68366 
L 180.857353 45.588274 
L 182.032503 45.810842 
L 183.207652 45.397501 
L 185.55795 45.779047 
L 187.908249 45.588274 
L 189.083398 45.651865 
L 190.258547 45.556478 
L 191.433696 45.715456 
L 192.608845 45.492887 
L 193.783994 45.842638 
L 196.134293 45.492887 
L 197.309442 45.620069 
L 199.65974 45.556478 
L 200.834889 46.065206 
L 202.010039 45.68366 
L 203.185188 45.938024 
L 204.360337 45.461092 
L 205.535486 45.96982 
L 206.710635 45.556478 
L 207.885784 45.651865 
L 209.060934 45.397501 
L 210.236083 45.68366 
L 211.411232 45.556478 
L 214.93668 45.556478 
L 218.462127 45.556478 
L 219.637276 45.779047 
L 221.987575 45.429296 
L 223.162724 45.747251 
L 224.337873 45.302114 
L 225.513022 45.461092 
L 226.688171 45.842638 
L 227.86332 45.238524 
L 230.213619 45.524683 
L 232.563917 45.556478 
L 234.914216 45.461092 
L 236.089365 45.492887 
L 237.264514 45.33391 
L 238.439663 45.651865 
L 239.614812 45.461092 
L 244.315409 45.397501 
L 245.490558 46.097002 
L 246.665707 45.492887 
L 247.840856 45.429296 
L 249.016006 45.651865 
L 251.366304 45.779047 
L 252.541453 45.556478 
L 253.716602 45.620069 
L 254.891751 45.429296 
L 256.066901 45.429296 
L 257.24205 45.620069 
L 258.417199 45.461092 
L 260.767497 45.429296 
L 263.117796 45.33391 
L 264.292945 45.620069 
L 265.468094 45.461092 
L 266.643243 45.651865 
L 267.818392 45.33391 
L 270.168691 45.492887 
L 271.34384 45.33391 
L 272.518989 45.524683 
L 274.869287 45.556478 
L 277.219586 45.461092 
L 278.394735 45.620069 
L 279.569884 45.588274 
L 280.745033 45.397501 
L 283.095332 45.524683 
L 285.44563 45.365705 
L 286.620779 45.588274 
L 288.971078 45.461092 
L 290.146227 45.620069 
L 291.321376 45.365705 
L 292.496525 45.620069 
L 293.671674 45.747251 
L 294.846823 45.238524 
L 296.021973 45.33391 
L 297.197122 45.715456 
L 298.372271 45.556478 
L 299.54742 45.588274 
L 300.722569 45.365705 
L 301.897718 45.461092 
L 303.072868 45.68366 
L 304.248017 45.620069 
L 305.423166 45.174933 
L 306.598315 45.174933 
L 307.773464 45.397501 
L 310.123763 45.33391 
L 311.298912 45.079546 
L 312.474061 45.461092 
L 317.174658 45.492887 
L 318.349807 45.492887 
L 319.524956 45.365705 
L 320.700105 45.524683 
L 325.400702 45.397501 
L 327.751 45.524683 
L 331.276448 45.492887 
L 332.451597 45.556478 
L 333.626746 45.397501 
L 338.327343 45.397501 
L 339.502492 45.270319 
L 340.677641 45.620069 
L 341.85279 45.651865 
L 343.02794 45.33391 
L 344.203089 45.556478 
L 345.378238 45.270319 
L 346.553387 45.111342 
L 348.903686 45.651865 
L 353.604282 45.397501 
L 354.779431 45.461092 
L 355.954581 45.33391 
L 357.12973 45.556478 
L 358.304879 45.397501 
L 360.655177 45.68366 
L 361.830326 45.365705 
L 363.005476 45.492887 
L 365.355774 45.556478 
L 366.530923 45.68366 
L 367.706072 45.33391 
L 368.881221 45.461092 
L 373.581818 45.492887 
L 373.581818 45.492887 
" style="fill:none;stroke:#e377c2;stroke-linecap:round;stroke-width:1.5;"/>
   </g>
   <g id="line2d_21">
    <path clip-path="url(#pa178e580c7)" d="M 69.218182 63.520951 
L 70.393331 54.204863 
L 71.56848 50.452991 
L 73.918779 48.608852 
L 76.269077 47.464208 
L 77.444226 47.082662 
L 78.619375 47.050866 
L 79.794524 46.828299 
L 80.969674 46.987275 
L 82.144823 46.732911 
L 83.319972 46.860094 
L 84.495121 46.287775 
L 85.67027 46.796502 
L 86.845419 46.160593 
L 88.020569 46.446752 
L 89.195718 46.31957 
L 91.546016 45.906229 
L 92.721165 46.160593 
L 93.896314 46.065206 
L 95.071464 46.383161 
L 96.246613 46.065206 
L 97.421762 45.524683 
L 98.596911 46.287775 
L 99.77206 45.651865 
L 100.94721 45.68366 
L 102.122359 45.492887 
L 103.297508 45.620069 
L 104.472657 45.620069 
L 105.647806 45.270319 
L 106.822955 46.160593 
L 109.173254 45.906229 
L 110.348403 45.492887 
L 111.523552 45.33391 
L 113.87385 45.365705 
L 115.049 45.206728 
L 116.224149 45.397501 
L 117.399298 45.302114 
L 118.574447 45.620069 
L 119.749596 45.524683 
L 120.924746 45.620069 
L 122.099895 45.365705 
L 123.275044 45.302114 
L 124.450193 45.842638 
L 125.625342 45.429296 
L 126.800491 45.651865 
L 130.325939 44.952364 
L 131.501088 45.397501 
L 132.676237 45.397501 
L 133.851386 45.143137 
L 136.201685 45.33391 
L 140.902282 45.111342 
L 142.077431 45.556478 
L 143.25258 45.111342 
L 144.427729 45.143137 
L 145.602878 45.461092 
L 146.778027 45.206728 
L 147.953177 45.492887 
L 149.128326 45.492887 
L 150.303475 45.174933 
L 151.478624 45.524683 
L 155.004072 45.079546 
L 156.179221 45.302114 
L 157.35437 45.33391 
L 158.529519 45.556478 
L 159.704668 45.397501 
L 160.879817 45.365705 
L 162.054967 45.174933 
L 163.230116 45.620069 
L 164.405265 45.461092 
L 165.580414 45.143137 
L 166.755563 45.270319 
L 167.930713 45.238524 
L 169.105862 45.397501 
L 171.45616 44.98416 
L 172.631309 45.302114 
L 173.806458 45.111342 
L 174.981608 45.302114 
L 177.331906 45.111342 
L 178.507055 45.206728 
L 179.682204 45.047751 
L 180.857353 45.429296 
L 182.032503 45.015955 
L 183.207652 45.111342 
L 184.382801 45.33391 
L 185.55795 45.174933 
L 187.908249 45.238524 
L 189.083398 45.047751 
L 191.433696 45.524683 
L 194.959144 45.174933 
L 196.134293 45.365705 
L 197.309442 45.143137 
L 205.535486 45.365705 
L 206.710635 45.079546 
L 210.236083 45.302114 
L 212.586381 45.206728 
L 216.111829 45.302114 
L 217.286978 45.206728 
L 218.462127 45.429296 
L 224.337873 45.143137 
L 226.688171 45.238524 
L 227.86332 45.206728 
L 229.03847 45.33391 
L 230.213619 45.238524 
L 231.388768 45.33391 
L 233.739066 45.143137 
L 234.914216 45.33391 
L 236.089365 45.302114 
L 237.264514 45.143137 
L 238.439663 45.33391 
L 239.614812 45.238524 
L 240.789961 45.365705 
L 241.965111 45.270319 
L 243.14026 45.33391 
L 244.315409 45.111342 
L 247.840856 45.206728 
L 253.716602 45.302114 
L 256.066901 45.365705 
L 257.24205 45.238524 
L 259.592348 45.270319 
L 260.767497 45.461092 
L 261.942647 45.238524 
L 264.292945 45.206728 
L 268.993542 45.302114 
L 272.518989 45.174933 
L 273.694138 45.33391 
L 274.869287 45.302114 
L 276.044437 45.524683 
L 278.394735 45.174933 
L 279.569884 45.270319 
L 280.745033 45.238524 
L 281.920183 45.33391 
L 284.270481 45.238524 
L 285.44563 45.206728 
L 286.620779 45.302114 
L 287.795928 45.206728 
L 288.971078 45.33391 
L 292.496525 45.206728 
L 298.372271 45.33391 
L 299.54742 45.143137 
L 301.897718 45.302114 
L 303.072868 45.33391 
L 305.423166 45.143137 
L 306.598315 45.302114 
L 311.298912 45.270319 
L 327.751 45.270319 
L 328.92615 45.079546 
L 330.101299 45.270319 
L 332.451597 45.174933 
L 333.626746 45.365705 
L 337.152194 45.174933 
L 338.327343 45.397501 
L 339.502492 45.270319 
L 341.85279 45.302114 
L 363.005476 45.33391 
L 364.180625 45.174933 
L 365.355774 45.33391 
L 373.581818 45.206728 
L 373.581818 45.206728 
" style="fill:none;stroke:#7f7f7f;stroke-linecap:round;stroke-width:1.5;"/>
   </g>
   <g id="patch_3">
    <path d="M 54 252 
L 54 34.56 
" style="fill:none;stroke:#262626;stroke-linecap:square;stroke-linejoin:miter;stroke-width:1.25;"/>
   </g>
   <g id="patch_4">
    <path d="M 388.8 252 
L 388.8 34.56 
" style="fill:none;stroke:#262626;stroke-linecap:square;stroke-linejoin:miter;stroke-width:1.25;"/>
   </g>
   <g id="patch_5">
    <path d="M 54 252 
L 388.8 252 
" style="fill:none;stroke:#262626;stroke-linecap:square;stroke-linejoin:miter;stroke-width:1.25;"/>
   </g>
   <g id="patch_6">
    <path d="M 54 34.56 
L 388.8 34.56 
" style="fill:none;stroke:#262626;stroke-linecap:square;stroke-linejoin:miter;stroke-width:1.25;"/>
   </g>
   <g id="text_16">
    <!-- noise = 2.0 -->
    <defs>
     <path d="M 40.28125 0 
L 40.28125 33.5 
Q 40.28125 37.359375 39.71875 39.9375 
Q 39.15625 42.53125 37.890625 44.109375 
Q 36.625 45.703125 34.546875 46.359375 
Q 32.46875 47.015625 29.390625 47.015625 
Q 26.265625 47.015625 23.75 45.921875 
Q 21.234375 44.828125 19.453125 42.75 
Q 17.671875 40.671875 16.6875 37.625 
Q 15.71875 34.578125 15.71875 30.609375 
L 15.71875 0 
L 6.9375 0 
L 6.9375 41.546875 
Q 6.9375 43.21875 6.90625 45.046875 
Q 6.890625 46.875 6.828125 48.5 
Q 6.78125 50.140625 6.734375 51.3125 
Q 6.6875 52.484375 6.640625 52.828125 
L 14.9375 52.828125 
Q 14.984375 52.59375 15.03125 51.515625 
Q 15.09375 50.4375 15.15625 49.046875 
Q 15.234375 47.65625 15.28125 46.21875 
Q 15.328125 44.78125 15.328125 43.796875 
L 15.484375 43.796875 
Q 16.75 46.09375 18.265625 47.953125 
Q 19.78125 49.8125 21.78125 51.09375 
Q 23.78125 52.390625 26.359375 53.09375 
Q 28.953125 53.8125 32.375 53.8125 
Q 36.765625 53.8125 39.9375 52.734375 
Q 43.109375 51.65625 45.15625 49.40625 
Q 47.21875 47.171875 48.171875 43.625 
Q 49.125 40.09375 49.125 35.203125 
L 49.125 0 
z
" id="LiberationSans-110"/>
     <path d="M 6.6875 64.0625 
L 6.6875 72.46875 
L 15.484375 72.46875 
L 15.484375 64.0625 
z
M 6.6875 0 
L 6.6875 52.828125 
L 15.484375 52.828125 
L 15.484375 0 
z
" id="LiberationSans-105"/>
     <path d="M 46.390625 14.59375 
Q 46.390625 10.890625 44.9375 7.984375 
Q 43.5 5.078125 40.765625 3.09375 
Q 38.03125 1.125 34.046875 0.0625 
Q 30.078125 -0.984375 24.953125 -0.984375 
Q 20.359375 -0.984375 16.671875 -0.265625 
Q 12.984375 0.4375 10.203125 2 
Q 7.421875 3.5625 5.53125 6.125 
Q 3.65625 8.6875 2.78125 12.40625 
L 10.546875 13.921875 
Q 11.671875 9.671875 15.1875 7.6875 
Q 18.703125 5.71875 24.953125 5.71875 
Q 27.78125 5.71875 30.140625 6.109375 
Q 32.515625 6.5 34.21875 7.453125 
Q 35.9375 8.40625 36.890625 9.984375 
Q 37.84375 11.578125 37.84375 13.921875 
Q 37.84375 16.3125 36.71875 17.84375 
Q 35.59375 19.390625 33.59375 20.40625 
Q 31.59375 21.4375 28.734375 22.1875 
Q 25.875 22.953125 22.46875 23.875 
Q 19.28125 24.703125 16.15625 25.734375 
Q 13.03125 26.765625 10.515625 28.4375 
Q 8.015625 30.125 6.453125 32.609375 
Q 4.890625 35.109375 4.890625 38.875 
Q 4.890625 46.09375 10.03125 49.875 
Q 15.1875 53.65625 25.046875 53.65625 
Q 33.796875 53.65625 38.9375 50.578125 
Q 44.09375 47.515625 45.453125 40.71875 
L 37.546875 39.75 
Q 37.109375 41.796875 35.9375 43.1875 
Q 34.765625 44.578125 33.109375 45.4375 
Q 31.453125 46.296875 29.375 46.65625 
Q 27.296875 47.015625 25.046875 47.015625 
Q 19.09375 47.015625 16.25 45.203125 
Q 13.421875 43.40625 13.421875 39.75 
Q 13.421875 37.59375 14.46875 36.203125 
Q 15.53125 34.8125 17.40625 33.859375 
Q 19.28125 32.90625 21.921875 32.203125 
Q 24.5625 31.5 27.734375 30.71875 
Q 29.828125 30.171875 32.03125 29.5625 
Q 34.234375 28.953125 36.296875 28.09375 
Q 38.375 27.25 40.203125 26.09375 
Q 42.046875 24.953125 43.40625 23.34375 
Q 44.78125 21.734375 45.578125 19.578125 
Q 46.390625 17.4375 46.390625 14.59375 
z
" id="LiberationSans-115"/>
     <path id="LiberationSans-32"/>
     <path d="M 4.890625 41.796875 
L 4.890625 49.03125 
L 53.46875 49.03125 
L 53.46875 41.796875 
z
M 4.890625 16.796875 
L 4.890625 24.03125 
L 53.46875 24.03125 
L 53.46875 16.796875 
z
" id="LiberationSans-61"/>
    </defs>
    <g style="fill:#262626;" transform="translate(191.879063 28.56)scale(0.12 -0.12)">
     <use xlink:href="#LiberationSans-110"/>
     <use x="55.615234" xlink:href="#LiberationSans-111"/>
     <use x="111.230469" xlink:href="#LiberationSans-105"/>
     <use x="133.447266" xlink:href="#LiberationSans-115"/>
     <use x="183.447266" xlink:href="#LiberationSans-101"/>
     <use x="239.0625" xlink:href="#LiberationSans-32"/>
     <use x="266.845703" xlink:href="#LiberationSans-61"/>
     <use x="325.244141" xlink:href="#LiberationSans-32"/>
     <use x="353.027344" xlink:href="#LiberationSans-50"/>
     <use x="408.642578" xlink:href="#LiberationSans-46"/>
     <use x="436.425781" xlink:href="#LiberationSans-48"/>
    </g>
   </g>
   <g id="legend_1">
    <g id="line2d_22">
     <path d="M 282.335938 137.171875 
L 302.335938 137.171875 
" style="fill:none;stroke:#1f77b4;stroke-dasharray:5.55,2.4;stroke-dashoffset:0;stroke-width:1.5;"/>
    </g>
    <g id="line2d_23"/>
    <g id="text_17">
     <!-- DP_Sgd -->
     <defs>
      <path d="M 67.4375 35.109375 
Q 67.4375 26.515625 64.84375 19.9375 
Q 62.25 13.375 57.75 8.953125 
Q 53.265625 4.546875 47.140625 2.265625 
Q 41.015625 0 33.9375 0 
L 8.203125 0 
L 8.203125 68.796875 
L 30.953125 68.796875 
Q 38.921875 68.796875 45.625 66.8125 
Q 52.34375 64.84375 57.171875 60.71875 
Q 62.015625 56.59375 64.71875 50.234375 
Q 67.4375 43.890625 67.4375 35.109375 
z
M 58.0625 35.109375 
Q 58.0625 42.09375 56.046875 47.046875 
Q 54.046875 52 50.4375 55.171875 
Q 46.828125 58.34375 41.796875 59.828125 
Q 36.765625 61.328125 30.765625 61.328125 
L 17.53125 61.328125 
L 17.53125 7.46875 
L 32.859375 7.46875 
Q 38.28125 7.46875 42.890625 9.21875 
Q 47.515625 10.984375 50.875 14.453125 
Q 54.25 17.921875 56.15625 23.09375 
Q 58.0625 28.265625 58.0625 35.109375 
z
" id="LiberationSans-68"/>
      <path d="M 61.421875 48.09375 
Q 61.421875 43.609375 59.9375 39.71875 
Q 58.453125 35.84375 55.5 32.984375 
Q 52.546875 30.125 48.09375 28.46875 
Q 43.65625 26.8125 37.75 26.8125 
L 17.53125 26.8125 
L 17.53125 0 
L 8.203125 0 
L 8.203125 68.796875 
L 37.15625 68.796875 
Q 43.265625 68.796875 47.796875 67.3125 
Q 52.34375 65.828125 55.375 63.109375 
Q 58.40625 60.40625 59.90625 56.5625 
Q 61.421875 52.734375 61.421875 48.09375 
z
M 52.046875 48 
Q 52.046875 54.546875 48.046875 57.9375 
Q 44.046875 61.328125 36.03125 61.328125 
L 17.53125 61.328125 
L 17.53125 34.1875 
L 36.421875 34.1875 
Q 44.484375 34.1875 48.265625 37.75 
Q 52.046875 41.3125 52.046875 48 
z
" id="LiberationSans-80"/>
      <path d="M -1.515625 -19.875 
L -1.515625 -13.53125 
L 56.734375 -13.53125 
L 56.734375 -19.875 
z
" id="LiberationSans-95"/>
      <path d="M 62.109375 19 
Q 62.109375 14.65625 60.421875 10.984375 
Q 58.734375 7.328125 55.21875 4.65625 
Q 51.703125 2 46.359375 0.5 
Q 41.015625 -0.984375 33.6875 -0.984375 
Q 20.84375 -0.984375 13.671875 3.515625 
Q 6.5 8.015625 4.546875 16.5 
L 13.578125 18.3125 
Q 14.265625 15.625 15.671875 13.421875 
Q 17.09375 11.234375 19.5 9.640625 
Q 21.921875 8.0625 25.484375 7.171875 
Q 29.046875 6.296875 34.03125 6.296875 
Q 38.1875 6.296875 41.65625 7 
Q 45.125 7.71875 47.609375 9.171875 
Q 50.09375 10.640625 51.484375 12.953125 
Q 52.875 15.28125 52.875 18.5 
Q 52.875 21.875 51.34375 23.96875 
Q 49.8125 26.078125 47.015625 27.4375 
Q 44.234375 28.8125 40.375 29.734375 
Q 36.53125 30.671875 31.84375 31.734375 
Q 28.953125 32.375 26.046875 33.125 
Q 23.140625 33.890625 20.484375 34.9375 
Q 17.828125 35.984375 15.484375 37.390625 
Q 13.140625 38.8125 11.421875 40.796875 
Q 9.71875 42.78125 8.734375 45.390625 
Q 7.765625 48 7.765625 51.421875 
Q 7.765625 56.296875 9.734375 59.78125 
Q 11.71875 63.28125 15.234375 65.53125 
Q 18.75 67.78125 23.53125 68.796875 
Q 28.328125 69.828125 33.890625 69.828125 
Q 40.28125 69.828125 44.8125 68.828125 
Q 49.359375 67.828125 52.484375 65.8125 
Q 55.609375 63.8125 57.484375 60.859375 
Q 59.375 57.90625 60.5 54 
L 51.3125 52.390625 
Q 50.640625 54.890625 49.34375 56.84375 
Q 48.046875 58.796875 45.9375 60.109375 
Q 43.84375 61.421875 40.84375 62.109375 
Q 37.84375 62.796875 33.796875 62.796875 
Q 29 62.796875 25.75 61.9375 
Q 22.515625 61.078125 20.53125 59.609375 
Q 18.5625 58.15625 17.703125 56.171875 
Q 16.84375 54.203125 16.84375 51.90625 
Q 16.84375 48.828125 18.375 46.84375 
Q 19.921875 44.875 22.5625 43.546875 
Q 25.203125 42.234375 28.65625 41.359375 
Q 32.125 40.484375 36.03125 39.59375 
Q 39.203125 38.875 42.359375 38.109375 
Q 45.515625 37.359375 48.390625 36.296875 
Q 51.265625 35.25 53.78125 33.828125 
Q 56.296875 32.421875 58.15625 30.375 
Q 60.015625 28.328125 61.0625 25.53125 
Q 62.109375 22.75 62.109375 19 
z
" id="LiberationSans-83"/>
      <path d="M 26.765625 -20.75 
Q 22.21875 -20.75 18.703125 -19.8125 
Q 15.1875 -18.890625 12.6875 -17.15625 
Q 10.203125 -15.4375 8.640625 -13.03125 
Q 7.078125 -10.640625 6.390625 -7.71875 
L 15.234375 -6.453125 
Q 16.109375 -10.109375 19.109375 -12.078125 
Q 22.125 -14.0625 27 -14.0625 
Q 29.984375 -14.0625 32.421875 -13.234375 
Q 34.859375 -12.40625 36.5625 -10.5625 
Q 38.28125 -8.734375 39.203125 -5.796875 
Q 40.140625 -2.875 40.140625 1.3125 
L 40.140625 9.8125 
L 40.046875 9.8125 
Q 39.0625 7.8125 37.625 5.984375 
Q 36.1875 4.15625 34.109375 2.734375 
Q 32.03125 1.3125 29.296875 0.453125 
Q 26.5625 -0.390625 23.046875 -0.390625 
Q 18.015625 -0.390625 14.421875 1.296875 
Q 10.84375 2.984375 8.5625 6.34375 
Q 6.296875 9.71875 5.25 14.71875 
Q 4.203125 19.734375 4.203125 26.3125 
Q 4.203125 32.671875 5.25 37.75 
Q 6.296875 42.828125 8.65625 46.359375 
Q 11.03125 49.90625 14.8125 51.78125 
Q 18.609375 53.65625 24.03125 53.65625 
Q 29.640625 53.65625 33.765625 51.09375 
Q 37.890625 48.53125 40.140625 43.796875 
L 40.234375 43.796875 
Q 40.234375 45.015625 40.296875 46.53125 
Q 40.375 48.046875 40.453125 49.390625 
Q 40.53125 50.734375 40.625 51.703125 
Q 40.71875 52.6875 40.828125 52.828125 
L 49.171875 52.828125 
Q 49.125 52.390625 49.078125 51.34375 
Q 49.03125 50.296875 48.96875 48.828125 
Q 48.921875 47.359375 48.890625 45.578125 
Q 48.875 43.796875 48.875 41.890625 
L 48.875 1.515625 
Q 48.875 -9.578125 43.421875 -15.15625 
Q 37.984375 -20.75 26.765625 -20.75 
z
M 40.140625 26.421875 
Q 40.140625 31.9375 38.9375 35.859375 
Q 37.75 39.796875 35.796875 42.28125 
Q 33.84375 44.78125 31.328125 45.953125 
Q 28.8125 47.125 26.171875 47.125 
Q 22.796875 47.125 20.375 45.953125 
Q 17.96875 44.78125 16.375 42.265625 
Q 14.796875 39.75 14.03125 35.8125 
Q 13.28125 31.890625 13.28125 26.421875 
Q 13.28125 20.703125 14.03125 16.8125 
Q 14.796875 12.9375 16.359375 10.546875 
Q 17.921875 8.15625 20.3125 7.125 
Q 22.703125 6.109375 26.03125 6.109375 
Q 28.65625 6.109375 31.171875 7.21875 
Q 33.6875 8.34375 35.6875 10.78125 
Q 37.703125 13.234375 38.921875 17.09375 
Q 40.140625 20.953125 40.140625 26.421875 
z
" id="LiberationSans-103"/>
      <path d="M 40.09375 8.5 
Q 37.640625 3.421875 33.609375 1.21875 
Q 29.59375 -0.984375 23.640625 -0.984375 
Q 13.625 -0.984375 8.90625 5.75 
Q 4.203125 12.5 4.203125 26.171875 
Q 4.203125 53.8125 23.640625 53.8125 
Q 29.640625 53.8125 33.640625 51.609375 
Q 37.640625 49.421875 40.09375 44.625 
L 40.1875 44.625 
Q 40.1875 45.125 40.15625 46.171875 
Q 40.140625 47.21875 40.109375 48.359375 
Q 40.09375 49.515625 40.09375 50.53125 
Q 40.09375 51.5625 40.09375 52 
L 40.09375 72.46875 
L 48.875 72.46875 
L 48.875 10.890625 
Q 48.875 8.984375 48.890625 7.21875 
Q 48.921875 5.46875 48.96875 4 
Q 49.03125 2.546875 49.078125 1.484375 
Q 49.125 0.4375 49.171875 0 
L 40.765625 0 
Q 40.671875 0.484375 40.59375 1.390625 
Q 40.53125 2.296875 40.453125 3.46875 
Q 40.375 4.640625 40.328125 5.9375 
Q 40.28125 7.234375 40.28125 8.5 
z
M 13.421875 26.46875 
Q 13.421875 21 14.109375 17.09375 
Q 14.796875 13.1875 16.3125 10.671875 
Q 17.828125 8.15625 20.171875 6.984375 
Q 22.515625 5.8125 25.875 5.8125 
Q 29.34375 5.8125 32 6.9375 
Q 34.671875 8.0625 36.453125 10.578125 
Q 38.234375 13.09375 39.15625 17.140625 
Q 40.09375 21.1875 40.09375 27.046875 
Q 40.09375 32.671875 39.15625 36.546875 
Q 38.234375 40.4375 36.421875 42.828125 
Q 34.625 45.21875 32 46.265625 
Q 29.390625 47.3125 25.984375 47.3125 
Q 22.75 47.3125 20.40625 46.1875 
Q 18.0625 45.0625 16.5 42.578125 
Q 14.9375 40.09375 14.171875 36.109375 
Q 13.421875 32.125 13.421875 26.46875 
z
" id="LiberationSans-100"/>
     </defs>
     <g style="fill:#262626;" transform="translate(310.335938 140.671875)scale(0.1 -0.1)">
      <use xlink:href="#LiberationSans-68"/>
      <use x="72.216797" xlink:href="#LiberationSans-80"/>
      <use x="138.916016" xlink:href="#LiberationSans-95"/>
      <use x="194.53125" xlink:href="#LiberationSans-83"/>
      <use x="261.230469" xlink:href="#LiberationSans-103"/>
      <use x="316.845703" xlink:href="#LiberationSans-100"/>
     </g>
    </g>
    <g id="line2d_24">
     <path d="M 282.335938 151.49375 
L 302.335938 151.49375 
" style="fill:none;stroke:#ff7f0e;stroke-dasharray:1.5,2.475;stroke-dashoffset:0;stroke-width:1.5;"/>
    </g>
    <g id="line2d_25"/>
    <g id="text_18">
     <!-- DP_Adam -->
     <defs>
      <path d="M 37.5 0 
L 37.5 33.5 
Q 37.5 37.359375 37.015625 39.9375 
Q 36.53125 42.53125 35.375 44.109375 
Q 34.234375 45.703125 32.375 46.359375 
Q 30.515625 47.015625 27.828125 47.015625 
Q 25.046875 47.015625 22.796875 45.921875 
Q 20.5625 44.828125 18.96875 42.75 
Q 17.390625 40.671875 16.53125 37.625 
Q 15.671875 34.578125 15.671875 30.609375 
L 15.671875 0 
L 6.9375 0 
L 6.9375 41.546875 
Q 6.9375 43.21875 6.90625 45.046875 
Q 6.890625 46.875 6.828125 48.5 
Q 6.78125 50.140625 6.734375 51.3125 
Q 6.6875 52.484375 6.640625 52.828125 
L 14.9375 52.828125 
Q 14.984375 52.59375 15.03125 51.515625 
Q 15.09375 50.4375 15.15625 49.046875 
Q 15.234375 47.65625 15.28125 46.21875 
Q 15.328125 44.78125 15.328125 43.796875 
L 15.484375 43.796875 
Q 16.65625 46.09375 18.015625 47.953125 
Q 19.390625 49.8125 21.21875 51.09375 
Q 23.046875 52.390625 25.40625 53.09375 
Q 27.78125 53.8125 30.90625 53.8125 
Q 36.921875 53.8125 40.40625 51.421875 
Q 43.890625 49.03125 45.265625 43.796875 
L 45.40625 43.796875 
Q 46.578125 46.09375 48.046875 47.953125 
Q 49.515625 49.8125 51.46875 51.09375 
Q 53.421875 52.390625 55.859375 53.09375 
Q 58.296875 53.8125 61.421875 53.8125 
Q 65.4375 53.8125 68.328125 52.734375 
Q 71.234375 51.65625 73.09375 49.40625 
Q 74.953125 47.171875 75.828125 43.625 
Q 76.703125 40.09375 76.703125 35.203125 
L 76.703125 0 
L 68.015625 0 
L 68.015625 33.5 
Q 68.015625 37.359375 67.53125 39.9375 
Q 67.046875 42.53125 65.890625 44.109375 
Q 64.75 45.703125 62.890625 46.359375 
Q 61.03125 47.015625 58.34375 47.015625 
Q 55.5625 47.015625 53.3125 45.96875 
Q 51.078125 44.921875 49.484375 42.875 
Q 47.90625 40.828125 47.046875 37.75 
Q 46.1875 34.671875 46.1875 30.609375 
L 46.1875 0 
z
" id="LiberationSans-109"/>
     </defs>
     <g style="fill:#262626;" transform="translate(310.335938 154.99375)scale(0.1 -0.1)">
      <use xlink:href="#LiberationSans-68"/>
      <use x="72.216797" xlink:href="#LiberationSans-80"/>
      <use x="138.916016" xlink:href="#LiberationSans-95"/>
      <use x="194.53125" xlink:href="#LiberationSans-65"/>
      <use x="261.230469" xlink:href="#LiberationSans-100"/>
      <use x="316.845703" xlink:href="#LiberationSans-97"/>
      <use x="372.460938" xlink:href="#LiberationSans-109"/>
     </g>
    </g>
    <g id="line2d_26">
     <path d="M 282.335938 165.815625 
L 302.335938 165.815625 
" style="fill:none;stroke:#2ca02c;stroke-dasharray:9.6,2.4,1.5,2.4;stroke-dashoffset:0;stroke-width:1.5;"/>
    </g>
    <g id="line2d_27"/>
    <g id="text_19">
     <!-- DP_Adagrad -->
     <g style="fill:#262626;" transform="translate(310.335938 169.315625)scale(0.1 -0.1)">
      <use xlink:href="#LiberationSans-68"/>
      <use x="72.216797" xlink:href="#LiberationSans-80"/>
      <use x="138.916016" xlink:href="#LiberationSans-95"/>
      <use x="194.53125" xlink:href="#LiberationSans-65"/>
      <use x="261.230469" xlink:href="#LiberationSans-100"/>
      <use x="316.845703" xlink:href="#LiberationSans-97"/>
      <use x="372.460938" xlink:href="#LiberationSans-103"/>
      <use x="428.076172" xlink:href="#LiberationSans-114"/>
      <use x="461.376953" xlink:href="#LiberationSans-97"/>
      <use x="516.992188" xlink:href="#LiberationSans-100"/>
     </g>
    </g>
    <g id="line2d_28">
     <path d="M 282.335938 180.1375 
L 302.335938 180.1375 
" style="fill:none;stroke:#d62728;stroke-dasharray:5.55,2.4;stroke-dashoffset:0;stroke-width:1.5;"/>
    </g>
    <g id="line2d_29"/>
    <g id="text_20">
     <!-- DP_Momentum -->
     <defs>
      <path d="M 66.703125 0 
L 66.703125 45.90625 
Q 66.703125 48.390625 66.75 50.96875 
Q 66.796875 53.5625 66.890625 55.71875 
Q 67 58.203125 67.140625 60.546875 
Q 66.453125 58.0625 65.71875 55.609375 
Q 65.09375 53.515625 64.328125 51.140625 
Q 63.578125 48.78125 62.84375 46.875 
L 45.0625 0 
L 38.53125 0 
L 20.515625 46.875 
Q 20.21875 47.609375 19.890625 48.578125 
Q 19.578125 49.5625 19.203125 50.65625 
Q 18.84375 51.765625 18.46875 52.90625 
Q 18.109375 54.046875 17.78125 55.171875 
Q 16.9375 57.765625 16.15625 60.546875 
Q 16.21875 57.8125 16.3125 55.125 
Q 16.40625 52.828125 16.453125 50.3125 
Q 16.5 47.796875 16.5 45.90625 
L 16.5 0 
L 8.203125 0 
L 8.203125 68.796875 
L 20.453125 68.796875 
L 38.765625 21.09375 
Q 39.109375 20.125 39.59375 18.578125 
Q 40.09375 17.046875 40.53125 15.421875 
Q 40.96875 13.8125 41.328125 12.375 
Q 41.703125 10.9375 41.84375 10.15625 
Q 42 10.9375 42.390625 12.40625 
Q 42.78125 13.875 43.28125 15.484375 
Q 43.796875 17.09375 44.28125 18.609375 
Q 44.78125 20.125 45.171875 21.09375 
L 63.140625 68.796875 
L 75.09375 68.796875 
L 75.09375 0 
z
" id="LiberationSans-77"/>
      <path d="M 27.046875 0.390625 
Q 25.046875 -0.140625 22.96875 -0.453125 
Q 20.90625 -0.78125 18.171875 -0.78125 
Q 7.625 -0.78125 7.625 11.1875 
L 7.625 46.4375 
L 1.515625 46.4375 
L 1.515625 52.828125 
L 7.953125 52.828125 
L 10.546875 64.65625 
L 16.40625 64.65625 
L 16.40625 52.828125 
L 26.171875 52.828125 
L 26.171875 46.4375 
L 16.40625 46.4375 
L 16.40625 13.09375 
Q 16.40625 9.28125 17.640625 7.734375 
Q 18.890625 6.203125 21.96875 6.203125 
Q 23.25 6.203125 24.4375 6.390625 
Q 25.640625 6.59375 27.046875 6.890625 
z
" id="LiberationSans-116"/>
     </defs>
     <g style="fill:#262626;" transform="translate(310.335938 183.6375)scale(0.1 -0.1)">
      <use xlink:href="#LiberationSans-68"/>
      <use x="72.216797" xlink:href="#LiberationSans-80"/>
      <use x="138.916016" xlink:href="#LiberationSans-95"/>
      <use x="194.53125" xlink:href="#LiberationSans-77"/>
      <use x="277.832031" xlink:href="#LiberationSans-111"/>
      <use x="333.447266" xlink:href="#LiberationSans-109"/>
      <use x="416.748047" xlink:href="#LiberationSans-101"/>
      <use x="472.363281" xlink:href="#LiberationSans-110"/>
      <use x="527.978516" xlink:href="#LiberationSans-116"/>
      <use x="555.761719" xlink:href="#LiberationSans-117"/>
      <use x="611.376953" xlink:href="#LiberationSans-109"/>
     </g>
    </g>
    <g id="line2d_30">
     <path d="M 282.335938 194.459375 
L 302.335938 194.459375 
" style="fill:none;stroke:#9467bd;stroke-linecap:round;stroke-width:1.5;"/>
    </g>
    <g id="line2d_31"/>
    <g id="text_21">
     <!-- Sgd -->
     <g style="fill:#262626;" transform="translate(310.335938 197.959375)scale(0.1 -0.1)">
      <use xlink:href="#LiberationSans-83"/>
      <use x="66.699219" xlink:href="#LiberationSans-103"/>
      <use x="122.314453" xlink:href="#LiberationSans-100"/>
     </g>
    </g>
    <g id="line2d_32">
     <path d="M 282.335938 208.78125 
L 302.335938 208.78125 
" style="fill:none;stroke:#8c564b;stroke-linecap:round;stroke-width:1.5;"/>
    </g>
    <g id="line2d_33"/>
    <g id="text_22">
     <!-- Adam -->
     <g style="fill:#262626;" transform="translate(310.335938 212.28125)scale(0.1 -0.1)">
      <use xlink:href="#LiberationSans-65"/>
      <use x="66.699219" xlink:href="#LiberationSans-100"/>
      <use x="122.314453" xlink:href="#LiberationSans-97"/>
      <use x="177.929688" xlink:href="#LiberationSans-109"/>
     </g>
    </g>
    <g id="line2d_34">
     <path d="M 282.335938 223.103125 
L 302.335938 223.103125 
" style="fill:none;stroke:#e377c2;stroke-linecap:round;stroke-width:1.5;"/>
    </g>
    <g id="line2d_35"/>
    <g id="text_23">
     <!-- Adagrad -->
     <g style="fill:#262626;" transform="translate(310.335938 226.603125)scale(0.1 -0.1)">
      <use xlink:href="#LiberationSans-65"/>
      <use x="66.699219" xlink:href="#LiberationSans-100"/>
      <use x="122.314453" xlink:href="#LiberationSans-97"/>
      <use x="177.929688" xlink:href="#LiberationSans-103"/>
      <use x="233.544922" xlink:href="#LiberationSans-114"/>
      <use x="266.845703" xlink:href="#LiberationSans-97"/>
      <use x="322.460938" xlink:href="#LiberationSans-100"/>
     </g>
    </g>
    <g id="line2d_36">
     <path d="M 282.335938 237.425 
L 302.335938 237.425 
" style="fill:none;stroke:#7f7f7f;stroke-linecap:round;stroke-width:1.5;"/>
    </g>
    <g id="line2d_37"/>
    <g id="text_24">
     <!-- Momentum -->
     <g style="fill:#262626;" transform="translate(310.335938 240.925)scale(0.1 -0.1)">
      <use xlink:href="#LiberationSans-77"/>
      <use x="83.300781" xlink:href="#LiberationSans-111"/>
      <use x="138.916016" xlink:href="#LiberationSans-109"/>
      <use x="222.216797" xlink:href="#LiberationSans-101"/>
      <use x="277.832031" xlink:href="#LiberationSans-110"/>
      <use x="333.447266" xlink:href="#LiberationSans-116"/>
      <use x="361.230469" xlink:href="#LiberationSans-117"/>
      <use x="416.845703" xlink:href="#LiberationSans-109"/>
     </g>
    </g>
   </g>
  </g>
 </g>
 <defs>
  <clipPath id="pa178e580c7">
   <rect height="217.44" width="334.8" x="54" y="34.56"/>
  </clipPath>
 </defs>
</svg>
